<?xml version="1.0" encoding="utf-8" ?>
<svg baseProfile="full" height="600" version="1.1" width="600" xmlns="http://www.w3.org/2000/svg" xmlns:ev="http://www.w3.org/2001/xml-events" xmlns:xlink="http://www.w3.org/1999/xlink"><defs /><circle cx="300.0" cy="300.0" fill="none" r="270.0" stroke="black" /><circle cx="300.0" cy="300.0" fill="none" r="189.0" stroke="black" /><line stroke="black" x1="300.0" x2="300.0" y1="111.0" y2="30.0" /><line stroke="black" x1="394.5" x2="435.0" y1="136.3211986847411" y2="66.17314097820159" /><line stroke="black" x1="463.6788013152589" x2="533.8268590217984" y1="205.5" y2="165.00000000000003" /><line stroke="black" x1="489.0" x2="570.0" y1="300.0" y2="300.0" /><line stroke="black" x1="463.6788013152589" x2="533.8268590217984" y1="394.5" y2="435.0" /><line stroke="black" x1="394.5" x2="435.0" y1="463.6788013152589" y2="533.8268590217984" /><line stroke="black" x1="300.0" x2="300.0" y1="489.0" y2="570.0" /><line stroke="black" x1="205.50000000000006" x2="165.00000000000006" y1="463.6788013152589" y2="533.8268590217984" /><line stroke="black" x1="136.3211986847411" x2="66.17314097820156" y1="394.5" y2="435.0" /><line stroke="black" x1="111.0" x2="30.0" y1="300.0" y2="300.00000000000006" /><line stroke="black" x1="136.3211986847411" x2="66.17314097820159" y1="205.5" y2="164.99999999999997" /><line stroke="black" x1="205.49999999999991" x2="164.9999999999999" y1="136.32119868474112" y2="66.17314097820162" /><text dominant-baseline="central" font-size="20" text-anchor="middle" x="359.3989708510285" y="78.32002286665883">♈</text><text dominant-baseline="central" font-size="20" text-anchor="middle" x="462.28100628231266" y="137.71899371768734">♉</text><text dominant-baseline="central" font-size="20" text-anchor="middle" x="521.6799771333411" y="240.6010291489715">♊</text><text dominant-baseline="central" font-size="20" text-anchor="middle" x="521.6799771333411" y="359.3989708510285">♋</text><text dominant-baseline="central" font-size="20" text-anchor="middle" x="462.28100628231266" y="462.28100628231266">♌</text><text dominant-baseline="central" font-size="20" text-anchor="middle" x="359.3989708510285" y="521.6799771333411">♍</text><text dominant-baseline="central" font-size="20" text-anchor="middle" x="240.60102914897146" y="521.6799771333411">♎</text><text dominant-baseline="central" font-size="20" text-anchor="middle" x="137.71899371768737" y="462.28100628231266">♏</text><text dominant-baseline="central" font-size="20" text-anchor="middle" x="78.32002286665886" y="359.3989708510286">♐</text><text dominant-baseline="central" font-size="20" text-anchor="middle" x="78.32002286665883" y="240.60102914897146">♑</text><text dominant-baseline="central" font-size="20" text-anchor="middle" x="137.7189937176873" y="137.71899371768737">♒</text><text dominant-baseline="central" font-size="20" text-anchor="middle" x="240.60102914897152" y="78.32002286665883">♓</text><text dominant-baseline="central" font-size="16" text-anchor="middle" x="74.65649211729766" y="256.5195048887612">☉</text><text dominant-baseline="central" font-size="8" text-anchor="middle" x="8.378989798855798" y="243.73112397369096">10°55'</text><text dominant-baseline="central" font-size="16" text-anchor="middle" x="124.66960206841193" y="448.0861288613859">☽</text><text dominant-baseline="central" font-size="8" text-anchor="middle" x="73.10183797088601" y="491.6408726441464">19°48'</text><text dominant-baseline="central" font-size="16" text-anchor="middle" x="70.76104372206117" y="289.0569234398523">☿</text><text dominant-baseline="central" font-size="8" text-anchor="middle" x="3.3378212873732878" y="285.8383715103971">2°43'</text><text dominant-baseline="central" font-size="16" text-anchor="middle" x="96.94972457879501" y="406.9618420343105">♀</text><text dominant-baseline="central" font-size="8" text-anchor="middle" x="37.22905533726413" y="438.4212073385195">2°13'</text><text dominant-baseline="central" font-size="16" text-anchor="middle" x="179.68882209370992" y="104.56338503033518">♂</text><text dominant-baseline="central" font-size="8" text-anchor="middle" x="144.30318153303637" y="47.08202768631611">28°23'</text><text dominant-baseline="central" font-size="16" text-anchor="middle" x="397.99049779495056" y="92.4714180121259">♃</text><text dominant-baseline="central" font-size="8" text-anchor="middle" x="426.8112324405243" y="31.433599780398254">25°16'</text><text dominant-baseline="central" font-size="16" text-anchor="middle" x="448.6981215181407" y="125.18833375035786">♄</text><text dominant-baseline="central" font-size="8" text-anchor="middle" x="492.4328631411232" y="73.77313779458078">10°23'</text><text dominant-baseline="central" font-size="16" text-anchor="middle" x="137.25669688295957" y="138.1826112849577">♅</text><text dominant-baseline="central" font-size="8" text-anchor="middle" x="89.39101949559475" y="90.58926166288643">14°50'</text><text dominant-baseline="central" font-size="16" text-anchor="middle" x="107.98961286583179" y="174.29295472175454">♆</text><text dominant-baseline="central" font-size="8" text-anchor="middle" x="51.51596959107644" y="137.3202943458">3°12'</text><text dominant-baseline="central" font-size="16" text-anchor="middle" x="82.39305656355785" y="372.9209720742192">♇</text><text dominant-baseline="central" font-size="8" text-anchor="middle" x="18.391014376368958" y="394.36831680193075">11°28'</text><line stroke="red" stroke-width="0.5" x1="134.48509222733435" x2="132.9806941575265" y1="260.77213611467005" y2="267.773280094023" /><line stroke="green" stroke-width="0.5" x1="149.50391351134218" x2="441.1474925666128" y1="379.2776005666066" y2="394.9283695328113" /><line stroke="purple" stroke-width="0.5" x1="149.50391351134218" x2="158.85250743338727" y1="379.2776005666066" y2="205.07163046718858" /><line stroke="red" stroke-width="0.5" x1="158.85250743338727" x2="157.68641894761652" y1="205.07163046718858" y2="206.82889585259454" /><line stroke="red" stroke-width="0.5" x1="156.59008016577002" x2="149.50391351134218" y1="391.4746133806518" y2="379.2776005666066" /><line stroke="green" stroke-width="0.5" x1="130.09347946458652" x2="373.3924750251581" y1="291.8892491377729" y2="453.4521248131858" /><line stroke="orange" stroke-width="0.5" x1="149.50391351134218" x2="373.3924750251581" y1="379.2776005666066" y2="453.4521248131858" /><line stroke="red" stroke-width="0.5" x1="136.5396378565075" x2="138.71485368828405" y1="347.0608118068344" y2="354.04730871383305" /><line stroke="red" stroke-width="0.5" x1="134.48509222733435" x2="132.9806941575265" y1="260.77213611467005" y2="267.773280094023" /><line stroke="red" stroke-width="0.5" x1="130.09347946458652" x2="132.9806941575265" y1="291.8892491377729" y2="267.773280094023" /><line stroke="green" stroke-width="0.5" x1="132.9806941575265" x2="410.211548889916" y1="267.773280094023" y2="170.4337061914417" /><line stroke="orange" stroke-width="0.5" x1="170.04923447423474" x2="210.82818578710265" y1="409.75795433255655" y2="155.14697949307197" /><line stroke="blue" stroke-width="0.5" x1="170.04923447423474" x2="410.211548889916" y1="409.75795433255655" y2="170.4337061914417" /><line stroke="orange" stroke-width="0.5" x1="170.04923447423474" x2="179.37849298384063" y1="409.75795433255655" y2="180.06475895238043" /><line stroke="green" stroke-width="0.5" x1="130.09347946458652" x2="373.3924750251581" y1="291.8892491377729" y2="453.4521248131858" /><line stroke="red" stroke-width="0.5" x1="130.09347946458652" x2="132.9806941575265" y1="291.8892491377729" y2="267.773280094023" /><line stroke="purple" stroke-width="0.5" x1="130.09347946458652" x2="210.82818578710265" y1="291.8892491377729" y2="155.14697949307197" /><line stroke="green" stroke-width="0.5" x1="130.09347946458652" x2="372.6282513068457" y1="291.8892491377729" y2="146.18469805604627" /><line stroke="green" stroke-width="0.5" x1="130.09347946458652" x2="410.211548889916" y1="291.8892491377729" y2="170.4337061914417" /><line stroke="green" stroke-width="0.5" x1="149.50391351134218" x2="441.1474925666128" y1="379.2776005666066" y2="394.9283695328113" /><line stroke="purple" stroke-width="0.5" x1="149.50391351134218" x2="158.85250743338727" y1="379.2776005666066" y2="205.07163046718858" /><line stroke="red" stroke-width="0.5" x1="156.59008016577002" x2="149.50391351134218" y1="391.4746133806518" y2="379.2776005666066" /><line stroke="orange" stroke-width="0.5" x1="149.50391351134218" x2="373.3924750251581" y1="379.2776005666066" y2="453.4521248131858" /><line stroke="orange" stroke-width="0.5" x1="149.50391351134218" x2="210.82818578710265" y1="379.2776005666066" y2="155.14697949307197" /><line stroke="purple" stroke-width="0.5" x1="149.50391351134218" x2="157.68641894761652" y1="379.2776005666066" y2="206.82889585259454" /><line stroke="red" stroke-width="0.5" x1="149.50391351134218" x2="138.71485368828405" y1="379.2776005666066" y2="354.04730871383305" /><line stroke="orange" stroke-width="0.5" x1="170.04923447423474" x2="210.82818578710265" y1="409.75795433255655" y2="155.14697949307197" /><line stroke="purple" stroke-width="0.5" x1="130.09347946458652" x2="210.82818578710265" y1="291.8892491377729" y2="155.14697949307197" /><line stroke="orange" stroke-width="0.5" x1="149.50391351134218" x2="210.82818578710265" y1="379.2776005666066" y2="155.14697949307197" /><line stroke="purple" stroke-width="0.5" x1="210.82818578710265" x2="372.6282513068457" y1="155.14697949307197" y2="146.18469805604627" /><line stroke="green" stroke-width="0.5" x1="130.09347946458652" x2="372.6282513068457" y1="291.8892491377729" y2="146.18469805604627" /><line stroke="purple" stroke-width="0.5" x1="210.82818578710265" x2="372.6282513068457" y1="155.14697949307197" y2="146.18469805604627" /><line stroke="orange" stroke-width="0.5" x1="372.6282513068457" x2="157.68641894761652" y1="146.18469805604627" y2="206.82889585259454" /><line stroke="green" stroke-width="0.5" x1="132.9806941575265" x2="410.211548889916" y1="267.773280094023" y2="170.4337061914417" /><line stroke="blue" stroke-width="0.5" x1="170.04923447423474" x2="410.211548889916" y1="409.75795433255655" y2="170.4337061914417" /><line stroke="green" stroke-width="0.5" x1="130.09347946458652" x2="410.211548889916" y1="291.8892491377729" y2="170.4337061914417" /><line stroke="orange" stroke-width="0.5" x1="179.37849298384063" x2="410.211548889916" y1="180.06475895238043" y2="170.4337061914417" /><line stroke="orange" stroke-width="0.5" x1="157.68641894761652" x2="410.211548889916" y1="206.82889585259454" y2="170.4337061914417" /><line stroke="orange" stroke-width="0.5" x1="170.04923447423474" x2="179.37849298384063" y1="409.75795433255655" y2="180.06475895238043" /><line stroke="orange" stroke-width="0.5" x1="179.37849298384063" x2="410.211548889916" y1="180.06475895238043" y2="170.4337061914417" /><line stroke="purple" stroke-width="0.5" x1="179.37849298384063" x2="138.71485368828405" y1="180.06475895238043" y2="354.04730871383305" /><line stroke="purple" stroke-width="0.5" x1="138.5218679928034" x2="179.37849298384063" y1="353.46796128025073" y2="180.06475895238043" /><line stroke="red" stroke-width="0.5" x1="158.85250743338727" x2="157.68641894761652" y1="205.07163046718858" y2="206.82889585259454" /><line stroke="purple" stroke-width="0.5" x1="149.50391351134218" x2="157.68641894761652" y1="379.2776005666066" y2="206.82889585259454" /><line stroke="orange" stroke-width="0.5" x1="372.6282513068457" x2="157.68641894761652" y1="146.18469805604627" y2="206.82889585259454" /><line stroke="orange" stroke-width="0.5" x1="157.68641894761652" x2="410.211548889916" y1="206.82889585259454" y2="170.4337061914417" /><line stroke="red" stroke-width="0.5" x1="136.5396378565075" x2="138.71485368828405" y1="347.0608118068344" y2="354.04730871383305" /><line stroke="red" stroke-width="0.5" x1="149.50391351134218" x2="138.71485368828405" y1="379.2776005666066" y2="354.04730871383305" /><line stroke="purple" stroke-width="0.5" x1="179.37849298384063" x2="138.71485368828405" y1="180.06475895238043" y2="354.04730871383305" /><line stroke="red" stroke-width="0.5" x1="138.5218679928034" x2="138.71485368828405" y1="353.46796128025073" y2="354.04730871383305" /><line stroke="purple" stroke-width="0.5" x1="138.5218679928034" x2="179.37849298384063" y1="353.46796128025073" y2="180.06475895238043" /><line stroke="red" stroke-width="0.5" x1="138.5218679928034" x2="138.71485368828405" y1="353.46796128025073" y2="354.04730871383305" /><text dominant-baseline="central" fill="red" font-size="12" text-anchor="middle" x="594.2487249291835" y="369.7384246850312">AC</text><text dominant-baseline="central" fill="red" font-size="12" text-anchor="middle" x="293.33337889770917" y="-2.326505889044597">MC</text></svg>