<?xml version="1.0" encoding="utf-8" ?>
<svg baseProfile="full" height="600" version="1.1" width="600" xmlns="http://www.w3.org/2000/svg" xmlns:ev="http://www.w3.org/2001/xml-events" xmlns:xlink="http://www.w3.org/1999/xlink"><defs /><circle cx="300.0" cy="300.0" fill="none" r="270.0" stroke="black" /><circle cx="300.0" cy="300.0" fill="none" r="108.0" stroke="black" /><line stroke="black" x1="405.0888303318512" x2="562.722075829628" y1="324.906580244654" y2="362.266450611635" /><text dominant-baseline="central" font-size="16" text-anchor="middle" x="300.0" y="16.5">♈</text><line stroke="black" x1="388.45142485987014" x2="521.1285621496754" y1="361.97052073573974" y2="454.9263018393493" /><text dominant-baseline="central" font-size="16" text-anchor="middle" x="441.75" y="54.481798027111665">♉</text><line stroke="black" x1="355.18068117178643" x2="437.95170292946614" y1="392.83906734461334" y2="532.0976683615334" /><text dominant-baseline="central" font-size="16" text-anchor="middle" x="545.5182019728884" y="158.25000000000003">♊</text><line stroke="black" x1="302.380936107961" x2="305.9523402699025" y1="407.9737521032302" y2="569.9343802580754" /><text dominant-baseline="central" font-size="16" text-anchor="middle" x="583.5" y="300.0">♋</text><line stroke="black" x1="239.78596729978733" x2="149.4649182494683" y1="389.65640114335235" y2="524.141002858381" /><text dominant-baseline="central" font-size="16" text-anchor="middle" x="545.5182019728884" y="441.75">♌</text><line stroke="black" x1="198.20421824405327" x2="45.510545610133136" y1="336.07795471885373" y2="390.19488679713436" /><text dominant-baseline="central" font-size="16" text-anchor="middle" x="441.75" y="545.5182019728884">♍</text><line stroke="black" x1="194.91116966814877" x2="37.27792417037193" y1="275.0934197553461" y2="237.73354938836513" /><text dominant-baseline="central" font-size="16" text-anchor="middle" x="300.0" y="583.5">♎</text><line stroke="black" x1="211.54857514012986" x2="78.87143785032467" y1="238.02947926426026" y2="145.07369816065065" /><text dominant-baseline="central" font-size="16" text-anchor="middle" x="158.25000000000006" y="545.5182019728884">♏</text><line stroke="black" x1="244.81931882821357" x2="162.04829707053392" y1="207.16093265538666" y2="67.90233163846659" /><text dominant-baseline="central" font-size="16" text-anchor="middle" x="54.48179802711164" y="441.75">♐</text><line stroke="black" x1="297.619063892039" x2="294.04765973009745" y1="192.0262478967698" y2="30.065619741924536" /><text dominant-baseline="central" font-size="16" text-anchor="middle" x="16.5" y="300.00000000000006">♑</text><line stroke="black" x1="360.21403270021267" x2="450.5350817505317" y1="210.3435988566476" y2="75.85899714161903" /><text dominant-baseline="central" font-size="16" text-anchor="middle" x="54.481798027111665" y="158.24999999999997">♒</text><line stroke="black" x1="401.79578175594673" x2="554.4894543898669" y1="263.92204528114627" y2="209.80511320286567" /><text dominant-baseline="central" font-size="16" text-anchor="middle" x="158.2499999999999" y="54.481798027111694">♓</text><circle cx="114.42299350836277" cy="264.1925334378033" fill="red" r="3" /><text dominant-baseline="central" font-size="14" text-anchor="middle" x="-4.876510664832608" y="241.17344779067693">☉</text><circle cx="155.61026052692748" cy="421.95328259172953" fill="red" r="3" /><text dominant-baseline="central" font-size="14" text-anchor="middle" x="62.78828515138085" y="500.3518214006985">☽</text><circle cx="111.21497718287392" cy="290.98805459752543" fill="red" r="3" /><text dominant-baseline="central" font-size="14" text-anchor="middle" x="-10.146823199564267" y="285.19466112450607">☿</text><circle cx="132.78212612371354" cy="388.0862228517851" fill="red" r="3" /><text dominant-baseline="central" font-size="14" text-anchor="middle" x="25.284921488957934" y="444.7130803993613">♀</text><circle cx="200.92020643011406" cy="139.05219943674663" fill="red" r="3" /><text dominant-baseline="central" font-size="14" text-anchor="middle" x="137.22605342090168" y="35.58575621751231">♂</text><circle cx="380.69805700760634" cy="129.0941089511625" fill="red" r="3" /><text dominant-baseline="central" font-size="14" text-anchor="middle" x="432.575379369639" y="19.226036134052663">♃</text><circle cx="422.45727654435115" cy="156.03745132382411" fill="red" r="3" /><text dominant-baseline="central" font-size="14" text-anchor="middle" x="501.17981146571975" y="63.49009860342534">♄</text><circle cx="165.97610331537848" cy="166.73862105820047" fill="red" r="3" /><text dominant-baseline="central" font-size="14" text-anchor="middle" x="79.81788401812176" y="81.07059173847219">♅</text><circle cx="141.87379883068502" cy="196.47655094732727" fill="red" r="3" /><text dominant-baseline="central" font-size="14" text-anchor="middle" x="40.221240936125355" y="129.92576227060908">♆</text><circle cx="120.79428187587115" cy="360.05256523759226" fill="red" r="3" /><text dominant-baseline="central" font-size="14" text-anchor="middle" x="5.590605938931219" y="398.65778574747304">♇</text><line stroke="red" stroke-width="0.5" x1="205.4200527013339" x2="204.5603966614437" y1="277.5840777798114" y2="281.5847314822989" /><line stroke="green" stroke-width="0.5" x1="214.00223629219553" x2="380.65571003806446" y1="345.30148603806094" y2="354.2447825901779" /><line stroke="purple" stroke-width="0.5" x1="214.00223629219553" x2="219.3442899619356" y1="345.30148603806094" y2="245.75521740982202" /><line stroke="red" stroke-width="0.5" x1="219.3442899619356" x2="218.6779536843523" y1="245.75521740982202" y2="246.75936905862545" /><line stroke="red" stroke-width="0.5" x1="218.05147438044" x2="214.00223629219553" y1="352.27120764608674" y2="345.30148603806094" /><line stroke="green" stroke-width="0.5" x1="202.91055969404943" x2="341.93855715723316" y1="295.3652852215845" y2="387.6869284646776" /><line stroke="orange" stroke-width="0.5" x1="214.00223629219553" x2="341.93855715723316" y1="345.30148603806094" y2="387.6869284646776" /><line stroke="red" stroke-width="0.5" x1="206.59407877514712" x2="207.83705925044802" y1="326.89189246104826" y2="330.8841764079046" /><line stroke="red" stroke-width="0.5" x1="205.4200527013339" x2="204.5603966614437" y1="277.5840777798114" y2="281.5847314822989" /><line stroke="red" stroke-width="0.5" x1="202.91055969404943" x2="204.5603966614437" y1="295.3652852215845" y2="281.5847314822989" /><line stroke="green" stroke-width="0.5" x1="204.5603966614437" x2="362.9780279370949" y1="281.5847314822989" y2="225.96211782368096" /><line stroke="orange" stroke-width="0.5" x1="225.74241969956267" x2="249.04467759263008" y1="362.7188310471752" y2="217.22684542461255" /><line stroke="blue" stroke-width="0.5" x1="225.74241969956267" x2="362.9780279370949" y1="362.7188310471752" y2="225.96211782368096" /><line stroke="orange" stroke-width="0.5" x1="225.74241969956267" x2="231.07342456219465" y1="362.7188310471752" y2="231.46557654421736" /><line stroke="green" stroke-width="0.5" x1="202.91055969404943" x2="341.93855715723316" y1="295.3652852215845" y2="387.6869284646776" /><line stroke="red" stroke-width="0.5" x1="202.91055969404943" x2="204.5603966614437" y1="295.3652852215845" y2="281.5847314822989" /><line stroke="purple" stroke-width="0.5" x1="202.91055969404943" x2="249.04467759263008" y1="295.3652852215845" y2="217.22684542461255" /><line stroke="green" stroke-width="0.5" x1="202.91055969404943" x2="341.50185788962614" y1="295.3652852215845" y2="212.10554174631216" /><line stroke="green" stroke-width="0.5" x1="202.91055969404943" x2="362.9780279370949" y1="295.3652852215845" y2="225.96211782368096" /><line stroke="green" stroke-width="0.5" x1="214.00223629219553" x2="380.65571003806446" y1="345.30148603806094" y2="354.2447825901779" /><line stroke="purple" stroke-width="0.5" x1="214.00223629219553" x2="219.3442899619356" y1="345.30148603806094" y2="245.75521740982202" /><line stroke="red" stroke-width="0.5" x1="218.05147438044" x2="214.00223629219553" y1="352.27120764608674" y2="345.30148603806094" /><line stroke="orange" stroke-width="0.5" x1="214.00223629219553" x2="341.93855715723316" y1="345.30148603806094" y2="387.6869284646776" /><line stroke="orange" stroke-width="0.5" x1="214.00223629219553" x2="249.04467759263008" y1="345.30148603806094" y2="217.22684542461255" /><line stroke="purple" stroke-width="0.5" x1="214.00223629219553" x2="218.6779536843523" y1="345.30148603806094" y2="246.75936905862545" /><line stroke="red" stroke-width="0.5" x1="214.00223629219553" x2="207.83705925044802" y1="345.30148603806094" y2="330.8841764079046" /><line stroke="orange" stroke-width="0.5" x1="225.74241969956267" x2="249.04467759263008" y1="362.7188310471752" y2="217.22684542461255" /><line stroke="purple" stroke-width="0.5" x1="202.91055969404943" x2="249.04467759263008" y1="295.3652852215845" y2="217.22684542461255" /><line stroke="orange" stroke-width="0.5" x1="214.00223629219553" x2="249.04467759263008" y1="345.30148603806094" y2="217.22684542461255" /><line stroke="purple" stroke-width="0.5" x1="249.04467759263008" x2="341.50185788962614" y1="217.22684542461255" y2="212.10554174631216" /><line stroke="green" stroke-width="0.5" x1="202.91055969404943" x2="341.50185788962614" y1="295.3652852215845" y2="212.10554174631216" /><line stroke="purple" stroke-width="0.5" x1="249.04467759263008" x2="341.50185788962614" y1="217.22684542461255" y2="212.10554174631216" /><line stroke="orange" stroke-width="0.5" x1="341.50185788962614" x2="218.6779536843523" y1="212.10554174631216" y2="246.75936905862545" /><line stroke="green" stroke-width="0.5" x1="204.5603966614437" x2="362.9780279370949" y1="281.5847314822989" y2="225.96211782368096" /><line stroke="blue" stroke-width="0.5" x1="225.74241969956267" x2="362.9780279370949" y1="362.7188310471752" y2="225.96211782368096" /><line stroke="green" stroke-width="0.5" x1="202.91055969404943" x2="362.9780279370949" y1="295.3652852215845" y2="225.96211782368096" /><line stroke="orange" stroke-width="0.5" x1="231.07342456219465" x2="362.9780279370949" y1="231.46557654421736" y2="225.96211782368096" /><line stroke="orange" stroke-width="0.5" x1="218.6779536843523" x2="362.9780279370949" y1="246.75936905862545" y2="225.96211782368096" /><line stroke="orange" stroke-width="0.5" x1="225.74241969956267" x2="231.07342456219465" y1="362.7188310471752" y2="231.46557654421736" /><line stroke="orange" stroke-width="0.5" x1="231.07342456219465" x2="362.9780279370949" y1="231.46557654421736" y2="225.96211782368096" /><line stroke="purple" stroke-width="0.5" x1="231.07342456219465" x2="207.83705925044802" y1="231.46557654421736" y2="330.8841764079046" /><line stroke="purple" stroke-width="0.5" x1="207.72678171017338" x2="231.07342456219465" y1="330.5531207315719" y2="231.46557654421736" /><line stroke="red" stroke-width="0.5" x1="219.3442899619356" x2="218.6779536843523" y1="245.75521740982202" y2="246.75936905862545" /><line stroke="purple" stroke-width="0.5" x1="214.00223629219553" x2="218.6779536843523" y1="345.30148603806094" y2="246.75936905862545" /><line stroke="orange" stroke-width="0.5" x1="341.50185788962614" x2="218.6779536843523" y1="212.10554174631216" y2="246.75936905862545" /><line stroke="orange" stroke-width="0.5" x1="218.6779536843523" x2="362.9780279370949" y1="246.75936905862545" y2="225.96211782368096" /><line stroke="red" stroke-width="0.5" x1="206.59407877514712" x2="207.83705925044802" y1="326.89189246104826" y2="330.8841764079046" /><line stroke="red" stroke-width="0.5" x1="214.00223629219553" x2="207.83705925044802" y1="345.30148603806094" y2="330.8841764079046" /><line stroke="purple" stroke-width="0.5" x1="231.07342456219465" x2="207.83705925044802" y1="231.46557654421736" y2="330.8841764079046" /><line stroke="red" stroke-width="0.5" x1="207.72678171017338" x2="207.83705925044802" y1="330.5531207315719" y2="330.8841764079046" /><line stroke="purple" stroke-width="0.5" x1="207.72678171017338" x2="231.07342456219465" y1="330.5531207315719" y2="231.46557654421736" /><line stroke="red" stroke-width="0.5" x1="207.72678171017338" x2="207.83705925044802" y1="330.5531207315719" y2="330.8841764079046" /><text font-size="20" text-anchor="middle" x="300.0" y="20">Carta Natal</text></svg>