<?xml version="1.0" encoding="utf-8" ?>
<svg baseProfile="full" height="800" version="1.1" width="800" xmlns="http://www.w3.org/2000/svg" xmlns:ev="http://www.w3.org/2001/xml-events" xmlns:xlink="http://www.w3.org/1999/xlink"><defs /><circle cx="400.0" cy="400.0" fill="none" r="360.0" stroke="black" stroke-width="0.5" /><circle cx="400.0" cy="400.0" fill="none" r="306.0" stroke="black" stroke-width="0.5" /><circle cx="400.0" cy="400.0" fill="none" r="251.99999999999997" stroke="black" stroke-width="0.5" /><line stroke="black" stroke-width="0.5" x1="645.2072707743195" x2="750.2961011061707" y1="458.11535390419266" y2="483.02193414884664" /><text dominant-baseline="central" font-size="10" text-anchor="middle" x="757.3020231282941" y="484.6823728318236">1</text><line stroke="black" stroke-width="0.5" x1="606.3866580063636" x2="694.8380828662338" y1="544.597881716726" y2="606.5684024524658" /><text dominant-baseline="central" font-size="10" text-anchor="middle" x="700.7348445235584" y="610.6997705015151">2</text><line stroke="black" stroke-width="0.5" x1="528.7549227341684" x2="583.9356039059548" y1="616.6244904707644" y2="709.4635578153777" /><text dominant-baseline="central" font-size="10" text-anchor="middle" x="587.614315984074" y="715.6528289716853">3</text><line stroke="black" stroke-width="0.5" x1="405.55551758524234" x2="407.9364536932033" y1="651.938754907537" y2="759.9125070107673" /><text dominant-baseline="central" font-size="10" text-anchor="middle" x="408.0951827670674" y="767.1107571509826">4</text><line stroke="black" stroke-width="0.5" x1="259.5005903661704" x2="199.28655766595773" y1="609.1982693344888" y2="698.8546704778412" /><text dominant-baseline="central" font-size="10" text-anchor="middle" x="195.2722888192769" y="704.8317638873981">5</text><line stroke="black" stroke-width="0.5" x1="162.4765092361243" x2="60.68072748017755" y1="484.1818943439921" y2="520.2598490628459" /><text dominant-baseline="central" font-size="10" text-anchor="middle" x="53.894342029781114" y="522.6650460441027">6</text><line stroke="black" stroke-width="0.5" x1="154.79272922568052" x2="49.70389889382926" y1="341.88464609580745" y2="316.9780658511535" /><text dominant-baseline="central" font-size="10" text-anchor="middle" x="42.69797687170586" y="315.31762716817656">7</text><line stroke="black" stroke-width="0.5" x1="193.6133419936364" x2="105.16191713376622" y1="255.40211828327398" y2="193.4315975475342" /><text dominant-baseline="central" font-size="10" text-anchor="middle" x="99.26515547644158" y="189.3002294984849">8</text><line stroke="black" stroke-width="0.5" x1="271.2450772658317" x2="216.06439609404524" y1="183.37550952923553" y2="90.53644218462216" /><text dominant-baseline="central" font-size="10" text-anchor="middle" x="212.38568401592616" y="84.34717102831456">9</text><line stroke="black" stroke-width="0.5" x1="394.44448241475766" x2="392.06354630679664" y1="148.0612450924629" y2="40.087492989232715" /><text dominant-baseline="central" font-size="10" text-anchor="middle" x="391.90481723293254" y="32.889242849017364">10</text><line stroke="black" stroke-width="0.5" x1="540.4994096338296" x2="600.7134423340423" y1="190.80173066551112" y2="101.1453295221587" /><text dominant-baseline="central" font-size="10" text-anchor="middle" x="604.7277111807231" y="95.1682361126019">11</text><line stroke="black" stroke-width="0.5" x1="637.5234907638758" x2="739.3192725198224" y1="315.81810565600796" y2="279.7401509371542" /><text dominant-baseline="central" font-size="10" text-anchor="middle" x="746.1056579702189" y="277.3349539558973">12</text><text dominant-baseline="central" font-size="16" text-anchor="middle" x="400.0" y="11.199999999999989">♈</text><text dominant-baseline="central" font-size="16" text-anchor="middle" x="594.4000000000001" y="63.28932300861027">♉</text><text dominant-baseline="central" font-size="16" text-anchor="middle" x="736.7106769913898" y="205.60000000000002">♊</text><text dominant-baseline="central" font-size="16" text-anchor="middle" x="788.8" y="400.0">♋</text><text dominant-baseline="central" font-size="16" text-anchor="middle" x="736.7106769913898" y="594.4">♌</text><text dominant-baseline="central" font-size="16" text-anchor="middle" x="594.4000000000001" y="736.7106769913897">♍</text><text dominant-baseline="central" font-size="16" text-anchor="middle" x="400.0" y="788.8">♎</text><text dominant-baseline="central" font-size="16" text-anchor="middle" x="205.60000000000008" y="736.7106769913898">♏</text><text dominant-baseline="central" font-size="16" text-anchor="middle" x="63.28932300861021" y="594.4">♐</text><text dominant-baseline="central" font-size="16" text-anchor="middle" x="11.199999999999989" y="400.00000000000006">♑</text><text dominant-baseline="central" font-size="16" text-anchor="middle" x="63.28932300861027" y="205.59999999999994">♒</text><text dominant-baseline="central" font-size="16" text-anchor="middle" x="205.59999999999982" y="63.289323008610324">♓</text><line stroke="black" stroke-width="0.5" x1="400.0" x2="400.0" y1="40.0" y2="32.80000000000001" /><text dominant-baseline="central" font-size="8" text-anchor="middle" x="400.0" y="22.0">0</text><line stroke="black" stroke-width="0.5" x1="431.3760673891569" x2="431.6898280630485" y1="41.3699086869716" y2="37.78360777384131" /><line stroke="black" stroke-width="0.5" x1="462.51334396009497" x2="463.1384773996959" y1="45.46920891560512" y2="41.92390100476115" /><line stroke="black" stroke-width="0.5" x1="493.17485623690743" x2="494.10660479927657" y1="52.266702535935394" y2="48.789369561294734" /><line stroke="black" stroke-width="0.5" x1="523.1272515972407" x2="524.3585241132132" y1="61.710656517073005" y2="58.327763082243735" /><line stroke="black" stroke-width="0.5" x1="552.1425742266517" x2="553.6639999689183" y1="73.72919666680605" y2="70.46648863347406" /><line stroke="black" stroke-width="0.5" x1="580.0" x2="583.6" y1="88.23085463760208" y2="81.99547173035415" /><text dominant-baseline="central" font-size="8" text-anchor="middle" x="589.0" y="72.64239736948218">30</text><line stroke="black" stroke-width="0.5" x1="606.4875170863766" x2="608.5523922572404" y1="105.10526405596295" y2="102.15631669652254" /><line stroke="black" stroke-width="0.5" x1="631.4035394871541" x2="633.7175748820257" y1="124.22400047716792" y2="121.46624048193956" /><line stroke="black" stroke-width="0.5" x1="654.5584412271571" x2="657.1040256394288" y1="145.44155877284288" y2="142.8959743605713" /><line stroke="black" stroke-width="0.5" x1="675.7759995228321" x2="678.5337595180604" y1="168.59646051284588" y2="166.28242511797433" /><line stroke="black" stroke-width="0.5" x1="694.894735944037" x2="697.8436833034775" y1="193.51248291362342" y2="191.44760774275966" /><line stroke="black" stroke-width="0.5" x1="711.7691453623979" x2="718.0045282696459" y1="220.00000000000003" y2="216.40000000000003" /><text dominant-baseline="central" font-size="8" text-anchor="middle" x="727.3576026305178" y="211.00000000000003">60</text><line stroke="black" stroke-width="0.5" x1="726.270803333194" x2="729.533511366526" y1="247.8574257733482" y2="246.33600003108168" /><line stroke="black" stroke-width="0.5" x1="738.289343482927" x2="741.6722369177563" y1="276.87274840275927" y2="275.64147588678685" /><line stroke="black" stroke-width="0.5" x1="747.7332974640647" x2="751.2106304387053" y1="306.82514376309257" y2="305.89339520072343" /><line stroke="black" stroke-width="0.5" x1="754.5307910843949" x2="758.0760989952389" y1="337.4866560399051" y2="336.8615226003041" /><line stroke="black" stroke-width="0.5" x1="758.6300913130284" x2="762.2163922261586" y1="368.62393261084304" y2="368.31017193695146" /><line stroke="black" stroke-width="0.5" x1="760.0" x2="767.2" y1="400.0" y2="400.0" /><text dominant-baseline="central" font-size="8" text-anchor="middle" x="778.0" y="400.0">90</text><line stroke="black" stroke-width="0.5" x1="758.6300913130284" x2="762.2163922261586" y1="431.37606738915696" y2="431.68982806304854" /><line stroke="black" stroke-width="0.5" x1="754.5307910843949" x2="758.0760989952389" y1="462.5133439600949" y2="463.1384773996959" /><line stroke="black" stroke-width="0.5" x1="747.7332974640647" x2="751.2106304387053" y1="493.17485623690743" y2="494.10660479927657" /><line stroke="black" stroke-width="0.5" x1="738.289343482927" x2="741.6722369177563" y1="523.1272515972407" y2="524.3585241132132" /><line stroke="black" stroke-width="0.5" x1="726.270803333194" x2="729.533511366526" y1="552.1425742266517" y2="553.6639999689183" /><line stroke="black" stroke-width="0.5" x1="711.7691453623979" x2="718.0045282696459" y1="580.0" y2="583.5999999999999" /><text dominant-baseline="central" font-size="8" text-anchor="middle" x="727.3576026305178" y="589.0">120</text><line stroke="black" stroke-width="0.5" x1="694.894735944037" x2="697.8436833034775" y1="606.4875170863766" y2="608.5523922572404" /><line stroke="black" stroke-width="0.5" x1="675.7759995228321" x2="678.5337595180604" y1="631.4035394871541" y2="633.7175748820257" /><line stroke="black" stroke-width="0.5" x1="654.5584412271571" x2="657.1040256394288" y1="654.5584412271571" y2="657.1040256394288" /><line stroke="black" stroke-width="0.5" x1="631.4035394871541" x2="633.7175748820257" y1="675.7759995228321" y2="678.5337595180604" /><line stroke="black" stroke-width="0.5" x1="606.4875170863766" x2="608.5523922572404" y1="694.894735944037" y2="697.8436833034775" /><line stroke="black" stroke-width="0.5" x1="580.0" x2="583.6" y1="711.7691453623979" y2="718.0045282696458" /><text dominant-baseline="central" font-size="8" text-anchor="middle" x="589.0" y="727.3576026305178">150</text><line stroke="black" stroke-width="0.5" x1="552.1425742266517" x2="553.6639999689183" y1="726.270803333194" y2="729.533511366526" /><line stroke="black" stroke-width="0.5" x1="523.1272515972407" x2="524.3585241132132" y1="738.289343482927" y2="741.6722369177562" /><line stroke="black" stroke-width="0.5" x1="493.17485623690743" x2="494.10660479927657" y1="747.7332974640647" y2="751.2106304387053" /><line stroke="black" stroke-width="0.5" x1="462.51334396009497" x2="463.1384773996959" y1="754.5307910843949" y2="758.0760989952389" /><line stroke="black" stroke-width="0.5" x1="431.3760673891569" x2="431.6898280630485" y1="758.6300913130284" y2="762.2163922261586" /><line stroke="black" stroke-width="0.5" x1="400.0" x2="400.0" y1="760.0" y2="767.2" /><text dominant-baseline="central" font-size="8" text-anchor="middle" x="400.0" y="778.0">180</text><line stroke="black" stroke-width="0.5" x1="368.62393261084304" x2="368.31017193695146" y1="758.6300913130284" y2="762.2163922261586" /><line stroke="black" stroke-width="0.5" x1="337.4866560399051" x2="336.8615226003041" y1="754.5307910843949" y2="758.0760989952389" /><line stroke="black" stroke-width="0.5" x1="306.8251437630925" x2="305.89339520072343" y1="747.7332974640647" y2="751.2106304387053" /><line stroke="black" stroke-width="0.5" x1="276.87274840275927" x2="275.64147588678685" y1="738.289343482927" y2="741.6722369177563" /><line stroke="black" stroke-width="0.5" x1="247.85742577334824" x2="246.3360000310817" y1="726.270803333194" y2="729.533511366526" /><line stroke="black" stroke-width="0.5" x1="220.00000000000009" x2="216.4000000000001" y1="711.7691453623979" y2="718.0045282696459" /><text dominant-baseline="central" font-size="8" text-anchor="middle" x="211.00000000000009" y="727.3576026305178">210</text><line stroke="black" stroke-width="0.5" x1="193.5124829136234" x2="191.4476077427596" y1="694.8947359440369" y2="697.8436833034774" /><line stroke="black" stroke-width="0.5" x1="168.59646051284582" x2="166.28242511797427" y1="675.7759995228321" y2="678.5337595180604" /><line stroke="black" stroke-width="0.5" x1="145.4415587728429" x2="142.8959743605713" y1="654.5584412271571" y2="657.1040256394288" /><line stroke="black" stroke-width="0.5" x1="124.22400047716798" x2="121.46624048193962" y1="631.4035394871541" y2="633.7175748820257" /><line stroke="black" stroke-width="0.5" x1="105.10526405596289" x2="102.15631669652254" y1="606.4875170863766" y2="608.5523922572403" /><line stroke="black" stroke-width="0.5" x1="88.23085463760208" x2="81.9954717303541" y1="580.0" y2="583.5999999999999" /><text dominant-baseline="central" font-size="8" text-anchor="middle" x="72.64239736948218" y="589.0">240</text><line stroke="black" stroke-width="0.5" x1="73.72919666680605" x2="70.46648863347406" y1="552.1425742266518" y2="553.6639999689183" /><line stroke="black" stroke-width="0.5" x1="61.710656517073005" x2="58.327763082243735" y1="523.1272515972408" y2="524.3585241132132" /><line stroke="black" stroke-width="0.5" x1="52.26670253593545" x2="48.78936956129479" y1="493.17485623690754" y2="494.1066047992766" /><line stroke="black" stroke-width="0.5" x1="45.46920891560512" x2="41.92390100476115" y1="462.5133439600949" y2="463.13847739969583" /><line stroke="black" stroke-width="0.5" x1="41.3699086869716" x2="37.78360777384131" y1="431.37606738915696" y2="431.68982806304854" /><line stroke="black" stroke-width="0.5" x1="40.0" x2="32.80000000000001" y1="400.00000000000006" y2="400.00000000000006" /><text dominant-baseline="central" font-size="8" text-anchor="middle" x="22.0" y="400.00000000000006">270</text><line stroke="black" stroke-width="0.5" x1="41.3699086869716" x2="37.78360777384131" y1="368.62393261084316" y2="368.3101719369516" /><line stroke="black" stroke-width="0.5" x1="45.46920891560512" x2="41.92390100476115" y1="337.48665603990503" y2="336.86152260030406" /><line stroke="black" stroke-width="0.5" x1="52.266702535935394" x2="48.789369561294734" y1="306.8251437630925" y2="305.89339520072343" /><line stroke="black" stroke-width="0.5" x1="61.71065651707295" x2="58.32776308224368" y1="276.87274840275927" y2="275.64147588678685" /><line stroke="black" stroke-width="0.5" x1="73.72919666680599" x2="70.466488633474" y1="247.85742577334827" y2="246.33600003108174" /><line stroke="black" stroke-width="0.5" x1="88.23085463760208" x2="81.99547173035415" y1="219.99999999999997" y2="216.39999999999998" /><text dominant-baseline="central" font-size="8" text-anchor="middle" x="72.64239736948218" y="210.99999999999997">300</text><line stroke="black" stroke-width="0.5" x1="105.10526405596295" x2="102.15631669652254" y1="193.5124829136234" y2="191.4476077427596" /><line stroke="black" stroke-width="0.5" x1="124.22400047716792" x2="121.46624048193956" y1="168.59646051284588" y2="166.28242511797433" /><line stroke="black" stroke-width="0.5" x1="145.44155877284282" x2="142.89597436057124" y1="145.4415587728429" y2="142.8959743605713" /><line stroke="black" stroke-width="0.5" x1="168.5964605128458" x2="166.28242511797424" y1="124.22400047716798" y2="121.46624048193962" /><line stroke="black" stroke-width="0.5" x1="193.5124829136233" x2="191.44760774275952" y1="105.105264055963" y2="102.15631669652265" /><line stroke="black" stroke-width="0.5" x1="219.99999999999983" x2="216.39999999999984" y1="88.23085463760214" y2="81.99547173035421" /><text dominant-baseline="central" font-size="8" text-anchor="middle" x="210.99999999999983" y="72.64239736948224">330</text><line stroke="black" stroke-width="0.5" x1="247.8574257733483" x2="246.33600003108177" y1="73.72919666680593" y2="70.466488633474" /><line stroke="black" stroke-width="0.5" x1="276.8727484027593" x2="275.6414758867869" y1="61.71065651707295" y2="58.32776308224368" /><line stroke="black" stroke-width="0.5" x1="306.82514376309257" x2="305.8933952007235" y1="52.266702535935394" y2="48.789369561294734" /><line stroke="black" stroke-width="0.5" x1="337.4866560399051" x2="336.8615226003041" y1="45.46920891560512" y2="41.92390100476115" /><line stroke="black" stroke-width="0.5" x1="368.62393261084304" x2="368.31017193695146" y1="41.3699086869716" y2="37.78360777384131" /><circle cx="99.54198948973021" cy="342.02600651834825" fill="red" r="3" /><text dominant-baseline="central" font-size="14" text-anchor="middle" x="-6.502014219776754" y="321.5645970542359">☉</text><text dominant-baseline="central" font-size="8" text-anchor="middle" x="114.27032333827282" y="344.86786894391946">10°55'</text><circle cx="166.2261360912159" cy="597.4481718151811" fill="red" r="3" /><text dominant-baseline="central" font-size="14" text-anchor="middle" x="83.71771353517448" y="667.1357618675979">☽</text><text dominant-baseline="central" font-size="8" text-anchor="middle" x="177.68563922399943" y="587.7693398634566">19°48'</text><circle cx="94.3480582960816" cy="385.4092312531364" fill="red" r="3" /><text dominant-baseline="central" font-size="14" text-anchor="middle" x="-13.529097599419003" y="380.2595481660081">☿</text><text dominant-baseline="central" font-size="8" text-anchor="middle" x="109.3309966149011" y="386.12446501523755">2°43'</text><circle cx="129.26629943839333" cy="542.6157893790808" fill="red" r="3" /><text dominant-baseline="central" font-size="14" text-anchor="middle" x="33.71322865194395" y="592.9507738658151">♀</text><text dominant-baseline="central" font-size="8" text-anchor="middle" x="142.53755926984462" y="535.6248193114787">2°13'</text><circle cx="239.58509612494657" cy="139.4178467071136" fill="red" r="3" /><text dominant-baseline="central" font-size="14" text-anchor="middle" x="182.9680712278689" y="47.4476749566831">♂</text><text dominant-baseline="central" font-size="8" text-anchor="middle" x="247.44857180509624" y="152.19148167245115">28°23'</text><circle cx="530.6539970599341" cy="123.29522401616788" fill="red" r="3" /><text dominant-baseline="central" font-size="14" text-anchor="middle" x="576.767172492852" y="25.634714845403664">♃</text><text dominant-baseline="central" font-size="8" text-anchor="middle" x="524.2493893609177" y="136.85918362321848">25°16'</text><circle cx="598.2641620241876" cy="166.91777833381047" fill="red" r="3" /><text dominant-baseline="central" font-size="14" text-anchor="middle" x="668.2397486209596" y="84.6534648045672">♄</text><text dominant-baseline="central" font-size="8" text-anchor="middle" x="588.5453305524137" y="178.34337743509428">10°23'</text><circle cx="183.00892917727944" cy="184.24348171327694" fill="red" r="3" /><text dominant-baseline="central" font-size="14" text-anchor="middle" x="106.42384535749574" y="108.09412231796296">♅</text><text dominant-baseline="central" font-size="8" text-anchor="middle" x="193.6457463744716" y="194.81978162929278">14°50'</text><circle cx="143.98615048777572" cy="232.3906062956727" fill="red" r="3" /><text dominant-baseline="central" font-size="14" text-anchor="middle" x="53.6283212481672" y="173.23434969414546">♆</text><text dominant-baseline="central" font-size="8" text-anchor="middle" x="156.53584899327691" y="240.60675304588483">3°12'</text><circle cx="109.85740875141045" cy="497.22796276562565" fill="red" r="3" /><text dominant-baseline="central" font-size="14" text-anchor="middle" x="7.454141251908311" y="531.543714329964">♇</text><text dominant-baseline="central" font-size="8" text-anchor="middle" x="124.08008479300798" y="492.4618861594675">11°28'</text><line stroke="red" stroke-width="0.5" x1="179.31345630311245" x2="177.30759221003535" y1="347.6961814862267" y2="357.03104012536403" /><line stroke="green" stroke-width="0.5" x1="199.33855134845626" x2="588.1966567554837" y1="505.7034674221421" y2="526.5711593770818" /><line stroke="purple" stroke-width="0.5" x1="199.33855134845626" x2="211.80334324451638" y1="505.7034674221421" y2="273.4288406229181" /><line stroke="red" stroke-width="0.5" x1="211.80334324451638" x2="210.24855859682202" y1="273.4288406229181" y2="275.7718611367927" /><line stroke="red" stroke-width="0.5" x1="208.78677355436002" x2="199.33855134845626" y1="521.9661511742024" y2="505.7034674221421" /><line stroke="green" stroke-width="0.5" x1="173.45797261944873" x2="497.8566333668774" y1="389.1856655170305" y2="604.6028330842477" /><line stroke="orange" stroke-width="0.5" x1="199.33855134845626" x2="497.8566333668774" y1="505.7034674221421" y2="604.6028330842477" /><line stroke="red" stroke-width="0.5" x1="182.05285047534335" x2="184.9531382510454" y1="462.74774907577927" y2="472.06307828511075" /><line stroke="red" stroke-width="0.5" x1="179.31345630311245" x2="177.30759221003535" y1="347.6961814862267" y2="357.03104012536403" /><line stroke="red" stroke-width="0.5" x1="173.45797261944873" x2="177.30759221003535" y1="389.1856655170305" y2="357.03104012536403" /><line stroke="green" stroke-width="0.5" x1="177.30759221003535" x2="546.9487318532214" y1="357.03104012536403" y2="227.24494158858897" /><line stroke="orange" stroke-width="0.5" x1="226.73231263231298" x2="281.1042477161369" y1="546.3439391100754" y2="206.86263932409597" /><line stroke="blue" stroke-width="0.5" x1="226.73231263231298" x2="546.9487318532214" y1="546.3439391100754" y2="227.24494158858897" /><line stroke="orange" stroke-width="0.5" x1="226.73231263231298" x2="239.17132397845418" y1="546.3439391100754" y2="240.08634526984056" /><line stroke="green" stroke-width="0.5" x1="173.45797261944873" x2="497.8566333668774" y1="389.1856655170305" y2="604.6028330842477" /><line stroke="red" stroke-width="0.5" x1="173.45797261944873" x2="177.30759221003535" y1="389.1856655170305" y2="357.03104012536403" /><line stroke="purple" stroke-width="0.5" x1="173.45797261944873" x2="281.1042477161369" y1="389.1856655170305" y2="206.86263932409597" /><line stroke="green" stroke-width="0.5" x1="173.45797261944873" x2="496.8376684091276" y1="389.1856655170305" y2="194.91293074139503" /><line stroke="green" stroke-width="0.5" x1="173.45797261944873" x2="546.9487318532214" y1="389.1856655170305" y2="227.24494158858897" /><line stroke="green" stroke-width="0.5" x1="199.33855134845626" x2="588.1966567554837" y1="505.7034674221421" y2="526.5711593770818" /><line stroke="purple" stroke-width="0.5" x1="199.33855134845626" x2="211.80334324451638" y1="505.7034674221421" y2="273.4288406229181" /><line stroke="red" stroke-width="0.5" x1="208.78677355436002" x2="199.33855134845626" y1="521.9661511742024" y2="505.7034674221421" /><line stroke="orange" stroke-width="0.5" x1="199.33855134845626" x2="497.8566333668774" y1="505.7034674221421" y2="604.6028330842477" /><line stroke="orange" stroke-width="0.5" x1="199.33855134845626" x2="281.1042477161369" y1="505.7034674221421" y2="206.86263932409597" /><line stroke="purple" stroke-width="0.5" x1="199.33855134845626" x2="210.24855859682202" y1="505.7034674221421" y2="275.7718611367927" /><line stroke="red" stroke-width="0.5" x1="199.33855134845626" x2="184.9531382510454" y1="505.7034674221421" y2="472.06307828511075" /><line stroke="orange" stroke-width="0.5" x1="226.73231263231298" x2="281.1042477161369" y1="546.3439391100754" y2="206.86263932409597" /><line stroke="purple" stroke-width="0.5" x1="173.45797261944873" x2="281.1042477161369" y1="389.1856655170305" y2="206.86263932409597" /><line stroke="orange" stroke-width="0.5" x1="199.33855134845626" x2="281.1042477161369" y1="505.7034674221421" y2="206.86263932409597" /><line stroke="purple" stroke-width="0.5" x1="281.1042477161369" x2="496.8376684091276" y1="206.86263932409597" y2="194.91293074139503" /><line stroke="green" stroke-width="0.5" x1="173.45797261944873" x2="496.8376684091276" y1="389.1856655170305" y2="194.91293074139503" /><line stroke="purple" stroke-width="0.5" x1="281.1042477161369" x2="496.8376684091276" y1="206.86263932409597" y2="194.91293074139503" /><line stroke="orange" stroke-width="0.5" x1="496.8376684091276" x2="210.24855859682202" y1="194.91293074139503" y2="275.7718611367927" /><line stroke="green" stroke-width="0.5" x1="177.30759221003535" x2="546.9487318532214" y1="357.03104012536403" y2="227.24494158858897" /><line stroke="blue" stroke-width="0.5" x1="226.73231263231298" x2="546.9487318532214" y1="546.3439391100754" y2="227.24494158858897" /><line stroke="green" stroke-width="0.5" x1="173.45797261944873" x2="546.9487318532214" y1="389.1856655170305" y2="227.24494158858897" /><line stroke="orange" stroke-width="0.5" x1="239.17132397845418" x2="546.9487318532214" y1="240.08634526984056" y2="227.24494158858897" /><line stroke="orange" stroke-width="0.5" x1="210.24855859682202" x2="546.9487318532214" y1="275.7718611367927" y2="227.24494158858897" /><line stroke="orange" stroke-width="0.5" x1="226.73231263231298" x2="239.17132397845418" y1="546.3439391100754" y2="240.08634526984056" /><line stroke="orange" stroke-width="0.5" x1="239.17132397845418" x2="546.9487318532214" y1="240.08634526984056" y2="227.24494158858897" /><line stroke="purple" stroke-width="0.5" x1="239.17132397845418" x2="184.9531382510454" y1="240.08634526984056" y2="472.06307828511075" /><line stroke="purple" stroke-width="0.5" x1="184.69582399040456" x2="239.17132397845418" y1="471.29061504033433" y2="240.08634526984056" /><line stroke="red" stroke-width="0.5" x1="211.80334324451638" x2="210.24855859682202" y1="273.4288406229181" y2="275.7718611367927" /><line stroke="purple" stroke-width="0.5" x1="199.33855134845626" x2="210.24855859682202" y1="505.7034674221421" y2="275.7718611367927" /><line stroke="orange" stroke-width="0.5" x1="496.8376684091276" x2="210.24855859682202" y1="194.91293074139503" y2="275.7718611367927" /><line stroke="orange" stroke-width="0.5" x1="210.24855859682202" x2="546.9487318532214" y1="275.7718611367927" y2="227.24494158858897" /><line stroke="red" stroke-width="0.5" x1="182.05285047534335" x2="184.9531382510454" y1="462.74774907577927" y2="472.06307828511075" /><line stroke="red" stroke-width="0.5" x1="199.33855134845626" x2="184.9531382510454" y1="505.7034674221421" y2="472.06307828511075" /><line stroke="purple" stroke-width="0.5" x1="239.17132397845418" x2="184.9531382510454" y1="240.08634526984056" y2="472.06307828511075" /><line stroke="red" stroke-width="0.5" x1="184.69582399040456" x2="184.9531382510454" y1="471.29061504033433" y2="472.06307828511075" /><line stroke="purple" stroke-width="0.5" x1="184.69582399040456" x2="239.17132397845418" y1="471.29061504033433" y2="240.08634526984056" /><line stroke="red" stroke-width="0.5" x1="184.69582399040456" x2="184.9531382510454" y1="471.29061504033433" y2="472.06307828511075" /><text dominant-baseline="central" fill="red" font-size="12" text-anchor="middle" x="792.3316332389112" y="492.98456624670825">ASC</text><text dominant-baseline="central" fill="red" font-size="12" text-anchor="middle" x="391.11117186361224" y="-3.102007852059444">MC</text><text font-size="20" text-anchor="middle" x="400.0" y="20">Carta Natal</text></svg>