<!-- icon666.com - MILLIONS vector ICONS FREE --><svg id="Capa_1" enable-background="new 0 0 512.004 512.004" viewBox="0 0 512.004 512.004" xmlns="http://www.w3.org/2000/svg"><g><path d="m512.004 63.64-63.639-63.64-183.475 183.477c-26.87-15.709-57.269-23.959-88.646-23.959-97.181 0-176.244 79.062-176.244 176.243s79.062 176.244 176.244 176.244c97.181 0 176.243-79.062 176.243-176.244 0-31.377-8.249-61.775-23.959-88.645zm-335.76 418.364c-80.639 0-146.244-65.604-146.244-146.243s65.604-146.243 146.244-146.243c29.509 0 57.97 8.793 82.305 25.43l10.273 7.023 179.543-179.544 21.213 21.213-179.544 179.543 7.023 10.273c16.636 24.335 25.43 52.795 25.43 82.305.001 80.639-65.604 146.243-146.243 146.243z" fill="#000000" style="fill: rgb(255, 0, 0);"></path><path d="m176.244 219.518c-64.097 0-116.244 52.146-116.244 116.243s52.146 116.244 116.244 116.244c64.097 0 116.243-52.146 116.243-116.244.001-64.097-52.146-116.243-116.243-116.243zm0 202.486c-47.554 0-86.244-38.688-86.244-86.243s38.689-86.243 86.244-86.243 86.243 38.688 86.243 86.243c.001 47.555-38.688 86.243-86.243 86.243z" fill="#000000" style="fill: rgb(255, 0, 0);"></path></g></svg>