<!-- icon666.com - MILLIONS vector ICONS FREE --><svg id="Capa_1" enable-background="new 0 0 512 512" viewBox="0 0 512 512" xmlns="http://www.w3.org/2000/svg"><g><path d="m387 0c-68.925 0-125 56.075-125 125 0 17.458 3.686 34.752 10.73 50.629l-97.1 97.101c-15.878-7.045-33.172-10.73-50.63-10.73-68.925 0-125 56.075-125 125s56.075 125 125 125 125-56.075 125-125c0-17.457-3.686-34.751-10.73-50.629l97.101-97.101c15.877 7.044 33.171 10.73 50.629 10.73 68.925 0 125-56.075 125-125s-56.075-125-125-125zm0 220c-16.191 0-32.19-4.17-46.267-12.059l-9.908-5.553-128.437 128.437 5.553 9.908c7.889 14.078 12.059 30.077 12.059 46.267 0 52.383-42.617 95-95 95s-95-42.617-95-95 42.617-95 95-95c16.191 0 32.19 4.17 46.266 12.059l9.909 5.553 128.436-128.437-5.553-9.908c-7.888-14.078-12.058-30.076-12.058-46.267 0-52.383 42.617-95 95-95s95 42.617 95 95-42.617 95-95 95z"></path><path d="m387 60c-35.841 0-65 29.159-65 65s29.159 65 65 65 65-29.159 65-65-29.159-65-65-65zm0 100c-19.299 0-35-15.701-35-35s15.701-35 35-35 35 15.701 35 35-15.701 35-35 35z"></path><path d="m125 322c-35.841 0-65 29.159-65 65s29.159 65 65 65 65-29.159 65-65-29.159-65-65-65zm0 100c-19.299 0-35-15.701-35-35s15.701-35 35-35 35 15.701 35 35-15.701 35-35 35z"></path></g></svg>