<!-- icon666.com - MILLIONS vector ICONS FREE --><svg id="Capa_1" enable-background="new 0 0 512.001 512.001" viewBox="0 0 512.001 512.001" xmlns="http://www.w3.org/2000/svg"><g><path d="m512.001 211.001h-142.875l142.306-138.645-62.806-64.463-192.625 187.67-192.626-187.67-62.805 64.463 142.305 138.645h-142.875v90h142.875l-142.305 138.644 62.805 64.463 192.626-187.67 192.625 187.67 62.806-64.463-142.306-138.645h142.875zm-30 59.999h-186.658l173.666 169.197-20.935 21.488-192.073-187.131-192.073 187.132-20.936-21.488 173.664-169.198h-186.656v-30h186.656l-173.664-169.197 20.936-21.488 192.073 187.131 192.072-187.131 20.935 21.488-173.665 169.198h186.658z" fill="#000000" style="fill: rgb(128, 128, 255);"></path></g></svg>