<svg id="cn17629" xmlns="http://www.w3.org/2000/svg" version="1.1" width="900" height="900" viewBox="0 0 510 510" xmlns:xlink="http://www.w3.org/1999/xlink">
  <line x1="115.96793733589" y1="228.68773002264" x2="131.68887728377" y2="231.66296903068" style="stroke: #000000"></line>
  <line x1="115.52990016251" y1="231.11818157423" x2="120.95099944948" y2="232.04645013495" style="stroke: #000000"></line>
  <line x1="115.13434693263" y1="233.55590775906" x2="120.57082108012" y2="234.38942371189" style="stroke: #000000"></line>
  <line x1="114.78139813558" y1="236.00016602212" x2="120.23159114091" y2="236.73867547003" style="stroke: #000000"></line>
  <line x1="114.47116128298" y1="238.45021181867" x2="119.93341296456" y2="239.09348980452" style="stroke: #000000"></line>
  <line x1="114.203730876" y1="240.90529884102" x2="123.15897060826" y2="241.80178160025" style="stroke: #000000"></line>
  <line x1="113.97918837651" y1="243.36467924588" x2="119.46056267989" y2="243.81693552961" style="stroke: #000000"></line>
  <line x1="113.79760218234" y1="245.82760388216" x2="119.28603460635" y2="246.18412811289" style="stroke: #000000"></line>
  <line x1="113.6590276064" y1="248.29332251915" x2="119.15284632135" y2="248.55400609614" style="stroke: #000000"></line>
  <line x1="113.56350685986" y1="250.76108407507" x2="119.06103839534" y2="250.92584759158" style="stroke: #000000"></line>
  <line x1="113.51106903925" y1="253.23013684584" x2="129.50981741644" y2="253.43026271486" style="stroke: #000000"></line>
  <line x1="113.50173011765" y1="255.69972873408" x2="119.00166286926" y2="255.67253079741" style="stroke: #000000"></line>
  <line x1="113.53549293978" y1="258.16910747816" x2="119.03411335555" y2="258.04592662212" style="stroke: #000000"></line>
  <line x1="113.61234722115" y1="260.63752088141" x2="119.10798036803" y2="260.41839462806" style="stroke: #000000"></line>
  <line x1="113.73226955122" y1="263.10421704118" x2="119.22324140612" y2="262.78921213852" style="stroke: #000000"></line>
  <line x1="113.89522340047" y1="265.56844457793" x2="122.87008551634" y2="264.89624668959" style="stroke: #000000"></line>
  <line x1="114.10115913159" y1="268.02945286409" x2="119.57779252223" y2="267.52300769976" style="stroke: #000000"></line>
  <line x1="114.35001401455" y1="270.48649225269" x2="119.81697460056" y2="269.88454379057" style="stroke: #000000"></line>
  <line x1="114.64171224575" y1="272.93881430573" x2="120.09733473797" y2="272.24154590515" style="stroke: #000000"></line>
  <line x1="114.97616497108" y1="275.38567202215" x2="120.41878753404" y2="274.59329607782" style="stroke: #000000"></line>
  <line x1="115.35327031301" y1="277.82632006539" x2="131.14371324581" y2="275.24525207213" style="stroke: #000000"></line>
  <line x1="115.77291340158" y1="280.26001499042" x2="121.18456694427" y2="279.27817695192" style="stroke: #000000"></line>
  <line x1="116.23496640946" y1="282.68601547018" x2="121.6286602946" y2="281.60988059325" style="stroke: #000000"></line>
  <line x1="116.73928859081" y1="285.10358252143" x2="122.113379847" y2="283.93347860717" style="stroke: #000000"></line>
  <line x1="117.28572632422" y1="287.51197972982" x2="122.63857795119" y2="286.24826320322" style="stroke: #000000"></line>
  <line x1="117.87411315946" y1="289.91047347424" x2="126.59590101504" y2="287.690019331" style="stroke: #000000"></line>
  <line x1="118.5042698682" y1="292.29833315025" x2="123.80975761184" y2="290.84857461791" style="stroke: #000000"></line>
  <line x1="119.1760044986" y1="294.67483139267" x2="124.45538241562" y2="293.13270013712" style="stroke: #000000"></line>
  <line x1="119.88911243379" y1="297.0392442971" x2="125.14077237453" y2="295.40521006647" style="stroke: #000000"></line>
  <line x1="120.64337645418" y1="299.39085164048" x2="125.86571871215" y2="297.66541217742" style="stroke: #000000"></line>
  <line x1="121.43856680364" y1="301.72893710043" x2="136.5409196739" y2="296.44509968978" style="stroke: #000000"></line>
  <line x1="122.2744412595" y1="304.05278847346" x2="127.43338523881" y2="302.14614298509" style="stroke: #000000"></line>
  <line x1="123.15074520629" y1="306.36169789194" x2="128.27562790145" y2="304.3653068078" style="stroke: #000000"></line>
  <line x1="124.06721171334" y1="308.65496203968" x2="129.15647203543" y2="306.56943347984" style="stroke: #000000"></line>
  <line x1="125.02356161607" y1="310.93188236623" x2="130.07564932711" y2="308.75785160288" style="stroke: #000000"></line>
  <line x1="126.01950360105" y1="313.19176529958" x2="134.22321008579" y2="309.49052227699" style="stroke: #000000"></line>
  <line x1="127.0547342947" y1="315.4339224575" x2="132.02787183094" y2="313.08490073654" style="stroke: #000000"></line>
  <line x1="128.12893835571" y1="317.65767085721" x2="133.06032237722" y2="315.22221368608" style="stroke: #000000"></line>
  <line x1="129.24178857112" y1="319.86233312339" x2="134.12991693055" y2="317.34118236595" style="stroke: #000000"></line>
  <line x1="130.39294595599" y1="322.04723769457" x2="135.23632968208" y2="319.44116131775" style="stroke: #000000"></line>
  <line x1="131.58205985661" y1="324.21171902765" x2="145.53744531452" y2="316.38565892558" style="stroke: #000000"></line>
  <line x1="132.80876805737" y1="326.35511780064" x2="137.55825057105" y2="323.58159732076" style="stroke: #000000"></line>
  <line x1="134.07269689108" y1="328.47678111352" x2="138.77305142889" y2="325.62079315504" style="stroke: #000000"></line>
  <line x1="135.37346135277" y1="330.57606268709" x2="140.02325614118" y2="327.63847721162" style="stroke: #000000"></line>
  <line x1="136.71066521697" y1="332.65232305983" x2="141.30848388345" y2="329.63403488436" style="stroke: #000000"></line>
  <line x1="138.08390115845" y1="334.70492978274" x2="145.52026080208" y2="329.63535827713" style="stroke: #000000"></line>
  <line x1="139.49275087622" y1="336.73325761192" x2="143.98243193757" y2="333.55634653867" style="stroke: #000000"></line>
  <line x1="140.93678522102" y1="338.73668869907" x2="145.37033773893" y2="335.4819057461" style="stroke: #000000"></line>
  <line x1="142.415564326" y1="340.71461277965" x2="146.79163779742" y2="337.38294938539" style="stroke: #000000"></line>
  <line x1="143.92863774071" y1="342.66642735886" x2="148.24589917128" y2="339.25889838024" style="stroke: #000000"></line>
  <line x1="145.47554456834" y1="344.59153789504" x2="157.85993528853" y2="334.46104597758" style="stroke: #000000"></line>
  <line x1="147.05581360608" y1="346.48935798089" x2="151.25152403129" y2="342.9332345258" style="stroke: #000000"></line>
  <line x1="148.66896348868" y1="348.35930952202" x2="152.80197197498" y2="344.73050243812" style="stroke: #000000"></line>
  <line x1="150.31450283505" y1="350.20082291307" x2="154.38355042803" y2="346.50043757016" style="stroke: #000000"></line>
  <line x1="151.99193039796" y1="352.01333721124" x2="155.99577762631" y2="348.24250078253" style="stroke: #000000"></line>
  <line x1="153.70073521674" y1="353.7963003071" x2="160.14379799447" y2="347.51243668333" style="stroke: #000000"></line>
  <line x1="155.44039677288" y1="355.54916909283" x2="159.31020467217" y2="351.64089750265" style="stroke: #000000"></line>
  <line x1="157.21038514862" y1="357.27140962761" x2="161.01139491316" y2="353.29619582583" style="stroke: #000000"></line>
  <line x1="159.01016118835" y1="358.96249730029" x2="162.74121499375" y2="354.92155217555" style="stroke: #000000"></line>
  <line x1="160.83917666286" y1="360.62191698919" x2="164.49913799398" y2="356.51647145251" style="stroke: #000000"></line>
  <line x1="162.69687443631" y1="362.24916321899" x2="173.13397697355" y2="350.12204935677" style="stroke: #000000"></line>
  <line x1="164.58268863597" y1="363.84374031473" x2="168.09714243457" y2="359.61306489614" style="stroke: #000000"></line>
  <line x1="166.49604482457" y1="365.40516255277" x2="169.93612788792" y2="361.11379581044" style="stroke: #000000"></line>
  <line x1="168.43636017526" y1="366.93295430879" x2="171.80102462075" y2="362.58220343459" style="stroke: #000000"></line>
  <line x1="170.40304364921" y1="368.4266502026" x2="173.69126456744" y2="364.01784047741" style="stroke: #000000"></line>
  <line x1="172.39549617557" y1="369.88579523997" x2="177.64949288525" y2="362.57857151446" style="stroke: #000000"></line>
  <line x1="174.41311083401" y1="371.30994495119" x2="177.54546341643" y2="366.78906369867" style="stroke: #000000"></line>
  <line x1="176.45527303955" y1="372.69866552645" x2="179.50824829243" y2="368.12380573567" style="stroke: #000000"></line>
  <line x1="178.52136072979" y1="374.05153394803" x2="181.49402868729" y2="369.42408916559" style="stroke: #000000"></line>
  <line x1="180.61074455443" y1="375.36813811908" x2="183.50219971309" y2="370.6895179095" style="stroke: #000000"></line>
  <line x1="182.7227880669" y1="376.64807698923" x2="190.89547634202" y2="362.89281740034" style="stroke: #000000"></line>
  <line x1="184.85684791829" y1="377.8909606767" x2="187.58326019002" y2="373.11428022637" style="stroke: #000000"></line>
  <line x1="187.0122740533" y1="379.09641058708" x2="189.65490651059" y2="374.27287519323" style="stroke: #000000"></line>
  <line x1="189.18840990824" y1="380.26405952864" x2="191.74645757965" y2="375.39513848689" style="stroke: #000000"></line>
  <line x1="191.38459261105" y1="381.39355182421" x2="193.85727629048" y2="376.48072825507" style="stroke: #000000"></line>
  <line x1="193.60015318321" y1="382.48454341949" x2="197.50544379347" y2="374.37598588751" style="stroke: #000000"></line>
  <line x1="195.83441674351" y1="383.53670198787" x2="198.1341390609" y2="378.5405757622" style="stroke: #000000"></line>
  <line x1="198.08670271362" y1="384.54970703167" x2="200.29888034665" y2="379.51420605164" style="stroke: #000000"></line>
  <line x1="200.35632502541" y1="385.52324997973" x2="202.48028412336" y2="380.44990810773" style="stroke: #000000"></line>
  <line x1="202.64259232994" y1="386.45703428144" x2="204.67768591429" y2="381.34739690654" style="stroke: #000000"></line>
  <line x1="204.94480820804" y1="387.35077549705" x2="210.60475922339" y2="372.3853167836" style="stroke: #000000"></line>
  <line x1="207.26227138247" y1="388.20420138434" x2="209.11780147007" y2="383.02665292063" style="stroke: #000000"></line>
  <line x1="209.59427593147" y1="389.0170519815" x2="211.35916273272" y2="383.80790861826" style="stroke: #000000"></line>
  <line x1="211.94011150388" y1="389.78907968638" x2="213.61381741716" y2="384.54992817914" style="stroke: #000000"></line>
  <line x1="214.29906353546" y1="390.52004933186" x2="215.88107873373" y2="385.25248557691" style="stroke: #000000"></line>
  <line x1="216.67041346656" y1="391.2097382575" x2="219.10833769837" y2="382.54622133653" style="stroke: #000000"></line>
  <line x1="219.05343896103" y1="391.85793637737" x2="220.45065511449" y2="386.53836994574" style="stroke: #000000"></line>
  <line x1="221.44741412621" y1="392.46444624405" x2="222.75157824145" y2="387.12130522396" style="stroke: #000000"></line>
  <line x1="223.85160973409" y1="393.02908310875" x2="225.06232455007" y2="387.66399507272" style="stroke: #000000"></line>
  <line x1="226.26529344337" y1="393.55167497762" x2="227.38219016466" y2="388.16627418344" style="stroke: #000000"></line>
  <line x1="228.68773002264" y1="394.03206266411" x2="231.66296903068" y2="378.31112271623" style="stroke: #000000"></line>
  <line x1="231.11818157423" y1="394.47009983749" x2="232.04645013495" y2="389.04900055052" style="stroke: #000000"></line>
  <line x1="233.55590775906" y1="394.86565306737" x2="234.38942371189" y2="389.42917891988" style="stroke: #000000"></line>
  <line x1="236.00016602212" y1="395.21860186442" x2="236.73867547003" y2="389.76840885909" style="stroke: #000000"></line>
  <line x1="238.45021181867" y1="395.52883871702" x2="239.09348980452" y2="390.06658703544" style="stroke: #000000"></line>
  <line x1="240.90529884102" y1="395.796269124" x2="241.80178160025" y2="386.84102939174" style="stroke: #000000"></line>
  <line x1="243.36467924588" y1="396.02081162349" x2="243.81693552961" y2="390.53943732011" style="stroke: #000000"></line>
  <line x1="245.82760388216" y1="396.20239781766" x2="246.18412811289" y2="390.71396539365" style="stroke: #000000"></line>
  <line x1="248.29332251915" y1="396.3409723936" x2="248.55400609614" y2="390.84715367865" style="stroke: #000000"></line>
  <line x1="250.76108407507" y1="396.43649314014" x2="250.92584759158" y2="390.93896160466" style="stroke: #000000"></line>
  <line x1="253.23013684584" y1="396.48893096075" x2="253.43026271486" y2="380.49018258356" style="stroke: #000000"></line>
  <line x1="255.69972873408" y1="396.49826988235" x2="255.67253079741" y2="390.99833713074" style="stroke: #000000"></line>
  <line x1="258.16910747816" y1="396.46450706022" x2="258.04592662212" y2="390.96588664445" style="stroke: #000000"></line>
  <line x1="260.6375208814" y1="396.38765277885" x2="260.41839462806" y2="390.89201963197" style="stroke: #000000"></line>
  <line x1="263.10421704118" y1="396.26773044878" x2="262.78921213852" y2="390.77675859388" style="stroke: #000000"></line>
  <line x1="265.56844457793" y1="396.10477659953" x2="264.89624668959" y2="387.12991448366" style="stroke: #000000"></line>
  <line x1="268.02945286409" y1="395.89884086841" x2="267.52300769976" y2="390.42220747777" style="stroke: #000000"></line>
  <line x1="270.48649225269" y1="395.64998598545" x2="269.88454379057" y2="390.18302539944" style="stroke: #000000"></line>
  <line x1="272.93881430573" y1="395.35828775425" x2="272.24154590515" y2="389.90266526203" style="stroke: #000000"></line>
  <line x1="275.38567202215" y1="395.02383502892" x2="274.59329607782" y2="389.58121246596" style="stroke: #000000"></line>
  <line x1="277.82632006539" y1="394.64672968699" x2="275.24525207213" y2="378.85628675419" style="stroke: #000000"></line>
  <line x1="280.26001499042" y1="394.22708659842" x2="279.27817695192" y2="388.81543305573" style="stroke: #000000"></line>
  <line x1="282.68601547018" y1="393.76503359054" x2="281.60988059325" y2="388.3713397054" style="stroke: #000000"></line>
  <line x1="285.10358252143" y1="393.26071140919" x2="283.93347860717" y2="387.886620153" style="stroke: #000000"></line>
  <line x1="287.51197972982" y1="392.71427367578" x2="286.24826320322" y2="387.36142204881" style="stroke: #000000"></line>
  <line x1="289.91047347424" y1="392.12588684054" x2="287.690019331" y2="383.40409898496" style="stroke: #000000"></line>
  <line x1="292.29833315025" y1="391.4957301318" x2="290.84857461791" y2="386.19024238816" style="stroke: #000000"></line>
  <line x1="294.67483139267" y1="390.8239955014" x2="293.13270013712" y2="385.54461758438" style="stroke: #000000"></line>
  <line x1="297.0392442971" y1="390.11088756621" x2="295.40521006647" y2="384.85922762547" style="stroke: #000000"></line>
  <line x1="299.39085164048" y1="389.35662354582" x2="297.66541217742" y2="384.13428128785" style="stroke: #000000"></line>
  <line x1="301.72893710043" y1="388.56143319636" x2="296.44509968978" y2="373.4590803261" style="stroke: #000000"></line>
  <line x1="304.05278847346" y1="387.7255587405" x2="302.14614298509" y2="382.56661476119" style="stroke: #000000"></line>
  <line x1="306.36169789194" y1="386.84925479371" x2="304.3653068078" y2="381.72437209855" style="stroke: #000000"></line>
  <line x1="308.65496203968" y1="385.93278828666" x2="306.56943347984" y2="380.84352796457" style="stroke: #000000"></line>
  <line x1="310.93188236623" y1="384.97643838393" x2="308.75785160288" y2="379.92435067289" style="stroke: #000000"></line>
  <line x1="313.19176529958" y1="383.98049639895" x2="309.49052227699" y2="375.77678991421" style="stroke: #000000"></line>
  <line x1="315.4339224575" y1="382.9452657053" x2="313.08490073654" y2="377.97212816906" style="stroke: #000000"></line>
  <line x1="317.65767085721" y1="381.87106164429" x2="315.22221368608" y2="376.93967762278" style="stroke: #000000"></line>
  <line x1="319.86233312339" y1="380.75821142888" x2="317.34118236595" y2="375.87008306945" style="stroke: #000000"></line>
  <line x1="322.04723769457" y1="379.60705404401" x2="319.44116131775" y2="374.76367031792" style="stroke: #000000"></line>
  <line x1="324.21171902765" y1="378.41794014339" x2="316.38565892558" y2="364.46255468548" style="stroke: #000000"></line>
  <line x1="326.35511780064" y1="377.19123194263" x2="323.58159732076" y2="372.44174942895" style="stroke: #000000"></line>
  <line x1="328.47678111352" y1="375.92730310892" x2="325.62079315504" y2="371.22694857111" style="stroke: #000000"></line>
  <line x1="330.57606268709" y1="374.62653864723" x2="327.63847721162" y2="369.97674385882" style="stroke: #000000"></line>
  <line x1="332.65232305983" y1="373.28933478303" x2="329.63403488436" y2="368.69151611655" style="stroke: #000000"></line>
  <line x1="334.70492978274" y1="371.91609884155" x2="329.63535827713" y2="364.47973919792" style="stroke: #000000"></line>
  <line x1="336.73325761192" y1="370.50724912378" x2="333.55634653867" y2="366.01756806243" style="stroke: #000000"></line>
  <line x1="338.73668869907" y1="369.06321477898" x2="335.4819057461" y2="364.62966226107" style="stroke: #000000"></line>
  <line x1="340.71461277965" y1="367.584435674" x2="337.38294938539" y2="363.20836220258" style="stroke: #000000"></line>
  <line x1="342.66642735886" y1="366.07136225929" x2="339.25889838024" y2="361.75410082872" style="stroke: #000000"></line>
  <line x1="344.59153789504" y1="364.52445543166" x2="334.46104597758" y2="352.14006471147" style="stroke: #000000"></line>
  <line x1="346.48935798089" y1="362.94418639392" x2="342.9332345258" y2="358.74847596871" style="stroke: #000000"></line>
  <line x1="348.35930952202" y1="361.33103651132" x2="344.73050243812" y2="357.19802802502" style="stroke: #000000"></line>
  <line x1="350.20082291307" y1="359.68549716495" x2="346.50043757016" y2="355.61644957197" style="stroke: #000000"></line>
  <line x1="352.01333721124" y1="358.00806960204" x2="348.24250078253" y2="354.00422237369" style="stroke: #000000"></line>
  <line x1="353.7963003071" y1="356.29926478326" x2="347.51243668333" y2="349.85620200553" style="stroke: #000000"></line>
  <line x1="355.54916909283" y1="354.55960322712" x2="351.64089750265" y2="350.68979532783" style="stroke: #000000"></line>
  <line x1="357.27140962761" y1="352.78961485138" x2="353.29619582583" y2="348.98860508684" style="stroke: #000000"></line>
  <line x1="358.96249730029" y1="350.98983881165" x2="354.92155217555" y2="347.25878500625" style="stroke: #000000"></line>
  <line x1="360.62191698919" y1="349.16082333714" x2="356.51647145251" y2="345.50086200602" style="stroke: #000000"></line>
  <line x1="362.24916321899" y1="347.30312556369" x2="350.12204935677" y2="336.86602302645" style="stroke: #000000"></line>
  <line x1="363.84374031473" y1="345.41731136403" x2="359.61306489614" y2="341.90285756543" style="stroke: #000000"></line>
  <line x1="365.40516255277" y1="343.50395517544" x2="361.11379581044" y2="340.06387211208" style="stroke: #000000"></line>
  <line x1="366.93295430879" y1="341.56363982474" x2="362.58220343459" y2="338.19897537925" style="stroke: #000000"></line>
  <line x1="368.4266502026" y1="339.59695635079" x2="364.01784047741" y2="336.30873543256" style="stroke: #000000"></line>
  <line x1="369.88579523997" y1="337.60450382443" x2="362.57857151446" y2="332.35050711475" style="stroke: #000000"></line>
  <line x1="371.30994495119" y1="335.58688916599" x2="366.78906369867" y2="332.45453658357" style="stroke: #000000"></line>
  <line x1="372.69866552645" y1="333.54472696045" x2="368.12380573567" y2="330.49175170757" style="stroke: #000000"></line>
  <line x1="374.05153394803" y1="331.47863927021" x2="369.42408916559" y2="328.50597131271" style="stroke: #000000"></line>
  <line x1="375.36813811908" y1="329.38925544557" x2="370.6895179095" y2="326.49780028691" style="stroke: #000000"></line>
  <line x1="376.64807698923" y1="327.2772119331" x2="362.89281740034" y2="319.10452365798" style="stroke: #000000"></line>
  <line x1="377.8909606767" y1="325.14315208171" x2="373.11428022637" y2="322.41673980998" style="stroke: #000000"></line>
  <line x1="379.09641058708" y1="322.9877259467" x2="374.27287519323" y2="320.34509348941" style="stroke: #000000"></line>
  <line x1="380.26405952864" y1="320.81159009176" x2="375.39513848689" y2="318.25354242035" style="stroke: #000000"></line>
  <line x1="381.39355182421" y1="318.61540738895" x2="376.48072825507" y2="316.14272370952" style="stroke: #000000"></line>
  <line x1="382.48454341949" y1="316.39984681679" x2="374.37598588751" y2="312.49455620653" style="stroke: #000000"></line>
  <line x1="383.53670198787" y1="314.16558325649" x2="378.5405757622" y2="311.8658609391" style="stroke: #000000"></line>
  <line x1="384.54970703167" y1="311.91329728638" x2="379.51420605164" y2="309.70111965335" style="stroke: #000000"></line>
  <line x1="385.52324997973" y1="309.64367497459" x2="380.44990810773" y2="307.51971587664" style="stroke: #000000"></line>
  <line x1="386.45703428144" y1="307.35740767006" x2="381.34739690654" y2="305.32231408571" style="stroke: #000000"></line>
  <line x1="387.35077549705" y1="305.05519179196" x2="372.3853167836" y2="299.39524077661" style="stroke: #000000"></line>
  <line x1="388.20420138434" y1="302.73772861753" x2="383.02665292063" y2="300.88219852993" style="stroke: #000000"></line>
  <line x1="389.0170519815" y1="300.40572406853" x2="383.80790861826" y2="298.64083726728" style="stroke: #000000"></line>
  <line x1="389.78907968638" y1="298.05988849612" x2="384.54992817914" y2="296.38618258284" style="stroke: #000000"></line>
  <line x1="390.52004933186" y1="295.70093646454" x2="385.25248557691" y2="294.11892126627" style="stroke: #000000"></line>
  <line x1="391.2097382575" y1="293.32958653344" x2="382.54622133653" y2="290.89166230163" style="stroke: #000000"></line>
  <line x1="391.85793637737" y1="290.94656103897" x2="386.53836994574" y2="289.54934488551" style="stroke: #000000"></line>
  <line x1="392.46444624405" y1="288.55258587379" x2="387.12130522396" y2="287.24842175855" style="stroke: #000000"></line>
  <line x1="393.02908310875" y1="286.14839026591" x2="387.66399507272" y2="284.93767544993" style="stroke: #000000"></line>
  <line x1="393.55167497762" y1="283.73470655663" x2="388.16627418344" y2="282.61780983534" style="stroke: #000000"></line>
  <line x1="394.03206266411" y1="281.31226997736" x2="378.31112271623" y2="278.33703096932" style="stroke: #000000"></line>
  <line x1="394.47009983749" y1="278.88181842577" x2="389.04900055052" y2="277.95354986505" style="stroke: #000000"></line>
  <line x1="394.86565306737" y1="276.44409224094" x2="389.42917891988" y2="275.61057628811" style="stroke: #000000"></line>
  <line x1="395.21860186442" y1="273.99983397788" x2="389.76840885909" y2="273.26132452997" style="stroke: #000000"></line>
  <line x1="395.52883871702" y1="271.54978818133" x2="390.06658703544" y2="270.90651019548" style="stroke: #000000"></line>
  <line x1="395.796269124" y1="269.09470115898" x2="386.84102939174" y2="268.19821839975" style="stroke: #000000"></line>
  <line x1="396.02081162349" y1="266.63532075412" x2="390.53943732011" y2="266.18306447039" style="stroke: #000000"></line>
  <line x1="396.20239781766" y1="264.17239611784" x2="390.71396539365" y2="263.81587188711" style="stroke: #000000"></line>
  <line x1="396.3409723936" y1="261.70667748085" x2="390.84715367865" y2="261.44599390386" style="stroke: #000000"></line>
  <line x1="396.43649314014" y1="259.23891592493" x2="390.93896160466" y2="259.07415240842" style="stroke: #000000"></line>
  <line x1="396.48893096075" y1="256.76986315416" x2="380.49018258356" y2="256.56973728514" style="stroke: #000000"></line>
  <line x1="396.49826988235" y1="254.30027126593" x2="390.99833713074" y2="254.32746920259" style="stroke: #000000"></line>
  <line x1="396.46450706022" y1="251.83089252184" x2="390.96588664445" y2="251.95407337788" style="stroke: #000000"></line>
  <line x1="396.38765277885" y1="249.3624791186" x2="390.89201963197" y2="249.58160537194" style="stroke: #000000"></line>
  <line x1="396.26773044878" y1="246.89578295882" x2="390.77675859388" y2="247.21078786148" style="stroke: #000000"></line>
  <line x1="396.10477659953" y1="244.43155542207" x2="387.12991448366" y2="245.10375331041" style="stroke: #000000"></line>
  <line x1="395.89884086841" y1="241.97054713591" x2="390.42220747777" y2="242.47699230024" style="stroke: #000000"></line>
  <line x1="395.64998598545" y1="239.51350774731" x2="390.18302539944" y2="240.11545620943" style="stroke: #000000"></line>
  <line x1="395.35828775425" y1="237.06118569427" x2="389.90266526203" y2="237.75845409485" style="stroke: #000000"></line>
  <line x1="395.02383502892" y1="234.61432797785" x2="389.58121246596" y2="235.40670392218" style="stroke: #000000"></line>
  <line x1="394.64672968699" y1="232.17367993461" x2="378.85628675419" y2="234.75474792787" style="stroke: #000000"></line>
  <line x1="394.22708659842" y1="229.73998500958" x2="388.81543305573" y2="230.72182304808" style="stroke: #000000"></line>
  <line x1="393.76503359054" y1="227.31398452982" x2="388.3713397054" y2="228.39011940675" style="stroke: #000000"></line>
  <line x1="393.26071140919" y1="224.89641747857" x2="387.886620153" y2="226.06652139283" style="stroke: #000000"></line>
  <line x1="392.71427367578" y1="222.48802027018" x2="387.36142204881" y2="223.75173679678" style="stroke: #000000"></line>
  <line x1="392.12588684054" y1="220.08952652576" x2="383.40409898496" y2="222.309980669" style="stroke: #000000"></line>
  <line x1="391.4957301318" y1="217.70166684975" x2="386.19024238816" y2="219.15142538209" style="stroke: #000000"></line>
  <line x1="390.8239955014" y1="215.32516860733" x2="385.54461758438" y2="216.86729986288" style="stroke: #000000"></line>
  <line x1="390.11088756621" y1="212.9607557029" x2="384.85922762547" y2="214.59478993353" style="stroke: #000000"></line>
  <line x1="389.35662354582" y1="210.60914835952" x2="384.13428128785" y2="212.33458782258" style="stroke: #000000"></line>
  <line x1="388.56143319636" y1="208.27106289957" x2="373.4590803261" y2="213.55490031022" style="stroke: #000000"></line>
  <line x1="387.7255587405" y1="205.94721152654" x2="382.56661476119" y2="207.85385701491" style="stroke: #000000"></line>
  <line x1="386.84925479371" y1="203.63830210806" x2="381.72437209855" y2="205.6346931922" style="stroke: #000000"></line>
  <line x1="385.93278828666" y1="201.34503796032" x2="380.84352796457" y2="203.43056652016" style="stroke: #000000"></line>
  <line x1="384.97643838393" y1="199.06811763377" x2="379.92435067289" y2="201.24214839712" style="stroke: #000000"></line>
  <line x1="383.98049639895" y1="196.80823470042" x2="375.77678991421" y2="200.50947772301" style="stroke: #000000"></line>
  <line x1="382.9452657053" y1="194.5660775425" x2="377.97212816906" y2="196.91509926346" style="stroke: #000000"></line>
  <line x1="381.87106164429" y1="192.34232914279" x2="376.93967762278" y2="194.77778631392" style="stroke: #000000"></line>
  <line x1="380.75821142888" y1="190.13766687661" x2="375.87008306945" y2="192.65881763405" style="stroke: #000000"></line>
  <line x1="379.60705404401" y1="187.95276230543" x2="374.76367031792" y2="190.55883868225" style="stroke: #000000"></line>
  <line x1="378.41794014339" y1="185.78828097235" x2="364.46255468548" y2="193.61434107442" style="stroke: #000000"></line>
  <line x1="377.19123194263" y1="183.64488219936" x2="372.44174942895" y2="186.41840267924" style="stroke: #000000"></line>
  <line x1="375.92730310892" y1="181.52321888648" x2="371.22694857111" y2="184.37920684496" style="stroke: #000000"></line>
  <line x1="374.62653864723" y1="179.42393731291" x2="369.97674385882" y2="182.36152278838" style="stroke: #000000"></line>
  <line x1="373.28933478303" y1="177.34767694017" x2="368.69151611655" y2="180.36596511564" style="stroke: #000000"></line>
  <line x1="371.91609884155" y1="175.29507021726" x2="364.47973919792" y2="180.36464172287" style="stroke: #000000"></line>
  <line x1="370.50724912378" y1="173.26674238808" x2="366.01756806243" y2="176.44365346133" style="stroke: #000000"></line>
  <line x1="369.06321477898" y1="171.26331130093" x2="364.62966226107" y2="174.5180942539" style="stroke: #000000"></line>
  <line x1="367.584435674" y1="169.28538722035" x2="363.20836220258" y2="172.61705061461" style="stroke: #000000"></line>
  <line x1="366.07136225929" y1="167.33357264114" x2="361.75410082872" y2="170.74110161976" style="stroke: #000000"></line>
  <line x1="364.52445543166" y1="165.40846210496" x2="352.14006471147" y2="175.53895402242" style="stroke: #000000"></line>
  <line x1="362.94418639392" y1="163.51064201911" x2="358.74847596871" y2="167.0667654742" style="stroke: #000000"></line>
  <line x1="361.33103651132" y1="161.64069047798" x2="357.19802802502" y2="165.26949756188" style="stroke: #000000"></line>
  <line x1="359.68549716495" y1="159.79917708693" x2="355.61644957197" y2="163.49956242984" style="stroke: #000000"></line>
  <line x1="358.00806960204" y1="157.98666278876" x2="354.00422237369" y2="161.75749921747" style="stroke: #000000"></line>
  <line x1="356.29926478326" y1="156.2036996929" x2="349.85620200553" y2="162.48756331667" style="stroke: #000000"></line>
  <line x1="354.55960322712" y1="154.45083090717" x2="350.68979532783" y2="158.35910249735" style="stroke: #000000"></line>
  <line x1="352.78961485138" y1="152.72859037239" x2="348.98860508684" y2="156.70380417417" style="stroke: #000000"></line>
  <line x1="350.98983881165" y1="151.03750269971" x2="347.25878500625" y2="155.07844782445" style="stroke: #000000"></line>
  <line x1="349.16082333714" y1="149.37808301081" x2="345.50086200602" y2="153.48352854749" style="stroke: #000000"></line>
  <line x1="347.30312556369" y1="147.75083678101" x2="336.86602302645" y2="159.87795064323" style="stroke: #000000"></line>
  <line x1="345.41731136403" y1="146.15625968527" x2="341.90285756543" y2="150.38693510386" style="stroke: #000000"></line>
  <line x1="343.50395517543" y1="144.59483744723" x2="340.06387211208" y2="148.88620418956" style="stroke: #000000"></line>
  <line x1="341.56363982474" y1="143.06704569121" x2="338.19897537925" y2="147.41779656541" style="stroke: #000000"></line>
  <line x1="339.59695635079" y1="141.5733497974" x2="336.30873543256" y2="145.98215952259" style="stroke: #000000"></line>
  <line x1="337.60450382443" y1="140.11420476003" x2="332.35050711475" y2="147.42142848554" style="stroke: #000000"></line>
  <line x1="335.58688916599" y1="138.69005504881" x2="332.45453658357" y2="143.21093630133" style="stroke: #000000"></line>
  <line x1="333.54472696045" y1="137.30133447355" x2="330.49175170757" y2="141.87619426433" style="stroke: #000000"></line>
  <line x1="331.47863927021" y1="135.94846605197" x2="328.50597131271" y2="140.57591083441" style="stroke: #000000"></line>
  <line x1="329.38925544557" y1="134.63186188092" x2="326.49780028691" y2="139.3104820905" style="stroke: #000000"></line>
  <line x1="327.2772119331" y1="133.35192301077" x2="319.10452365798" y2="147.10718259966" style="stroke: #000000"></line>
  <line x1="325.14315208171" y1="132.1090393233" x2="322.41673980998" y2="136.88571977363" style="stroke: #000000"></line>
  <line x1="322.9877259467" y1="130.90358941292" x2="320.34509348941" y2="135.72712480677" style="stroke: #000000"></line>
  <line x1="320.81159009176" y1="129.73594047136" x2="318.25354242035" y2="134.60486151311" style="stroke: #000000"></line>
  <line x1="318.61540738895" y1="128.60644817579" x2="316.14272370952" y2="133.51927174493" style="stroke: #000000"></line>
  <line x1="316.39984681679" y1="127.51545658051" x2="312.49455620653" y2="135.62401411249" style="stroke: #000000"></line>
  <line x1="314.16558325649" y1="126.46329801213" x2="311.8658609391" y2="131.4594242378" style="stroke: #000000"></line>
  <line x1="311.91329728638" y1="125.45029296833" x2="309.70111965335" y2="130.48579394836" style="stroke: #000000"></line>
  <line x1="309.64367497459" y1="124.47675002027" x2="307.51971587664" y2="129.55009189227" style="stroke: #000000"></line>
  <line x1="307.35740767006" y1="123.54296571856" x2="305.32231408571" y2="128.65260309346" style="stroke: #000000"></line>
  <line x1="305.05519179196" y1="122.64922450295" x2="299.39524077661" y2="137.6146832164" style="stroke: #000000"></line>
  <line x1="302.73772861753" y1="121.79579861566" x2="300.88219852993" y2="126.97334707937" style="stroke: #000000"></line>
  <line x1="300.40572406853" y1="120.9829480185" x2="298.64083726728" y2="126.19209138174" style="stroke: #000000"></line>
  <line x1="298.05988849612" y1="120.21092031362" x2="296.38618258284" y2="125.45007182086" style="stroke: #000000"></line>
  <line x1="295.70093646454" y1="119.47995066814" x2="294.11892126627" y2="124.74751442309" style="stroke: #000000"></line>
  <line x1="293.32958653344" y1="118.7902617425" x2="290.89166230163" y2="127.45377866348" style="stroke: #000000"></line>
  <line x1="290.94656103897" y1="118.14206362263" x2="289.54934488551" y2="123.46163005426" style="stroke: #000000"></line>
  <line x1="288.55258587379" y1="117.53555375595" x2="287.24842175855" y2="122.87869477604" style="stroke: #000000"></line>
  <line x1="286.14839026591" y1="116.97091689125" x2="284.93767544993" y2="122.33600492728" style="stroke: #000000"></line>
  <line x1="283.73470655663" y1="116.44832502238" x2="282.61780983534" y2="121.83372581656" style="stroke: #000000"></line>
  <line x1="281.31226997736" y1="115.96793733589" x2="278.33703096932" y2="131.68887728377" style="stroke: #000000"></line>
  <line x1="278.88181842577" y1="115.52990016251" x2="277.95354986505" y2="120.95099944948" style="stroke: #000000"></line>
  <line x1="276.44409224094" y1="115.13434693263" x2="275.61057628811" y2="120.57082108012" style="stroke: #000000"></line>
  <line x1="273.99983397788" y1="114.78139813558" x2="273.26132452997" y2="120.23159114091" style="stroke: #000000"></line>
  <line x1="271.54978818133" y1="114.47116128298" x2="270.90651019548" y2="119.93341296456" style="stroke: #000000"></line>
  <line x1="269.09470115898" y1="114.203730876" x2="268.19821839975" y2="123.15897060826" style="stroke: #000000"></line>
  <line x1="266.63532075412" y1="113.97918837651" x2="266.18306447039" y2="119.46056267989" style="stroke: #000000"></line>
  <line x1="264.17239611784" y1="113.79760218234" x2="263.81587188711" y2="119.28603460635" style="stroke: #000000"></line>
  <line x1="261.70667748085" y1="113.6590276064" x2="261.44599390386" y2="119.15284632135" style="stroke: #000000"></line>
  <line x1="259.23891592493" y1="113.56350685986" x2="259.07415240842" y2="119.06103839534" style="stroke: #000000"></line>
  <line x1="256.76986315416" y1="113.51106903925" x2="256.56973728514" y2="129.50981741644" style="stroke: #000000"></line>
  <line x1="254.30027126593" y1="113.50173011765" x2="254.32746920259" y2="119.00166286926" style="stroke: #000000"></line>
  <line x1="251.83089252184" y1="113.53549293978" x2="251.95407337788" y2="119.03411335555" style="stroke: #000000"></line>
  <line x1="249.3624791186" y1="113.61234722115" x2="249.58160537194" y2="119.10798036803" style="stroke: #000000"></line>
  <line x1="246.89578295882" y1="113.73226955122" x2="247.21078786148" y2="119.22324140612" style="stroke: #000000"></line>
  <line x1="244.43155542207" y1="113.89522340047" x2="245.10375331041" y2="122.87008551634" style="stroke: #000000"></line>
  <line x1="241.97054713591" y1="114.10115913159" x2="242.47699230024" y2="119.57779252223" style="stroke: #000000"></line>
  <line x1="239.51350774731" y1="114.35001401455" x2="240.11545620943" y2="119.81697460056" style="stroke: #000000"></line>
  <line x1="237.06118569427" y1="114.64171224575" x2="237.75845409485" y2="120.09733473797" style="stroke: #000000"></line>
  <line x1="234.61432797785" y1="114.97616497108" x2="235.40670392218" y2="120.41878753404" style="stroke: #000000"></line>
  <line x1="232.17367993461" y1="115.35327031301" x2="234.75474792787" y2="131.14371324581" style="stroke: #000000"></line>
  <line x1="229.73998500958" y1="115.77291340158" x2="230.72182304808" y2="121.18456694427" style="stroke: #000000"></line>
  <line x1="227.31398452982" y1="116.23496640946" x2="228.39011940675" y2="121.6286602946" style="stroke: #000000"></line>
  <line x1="224.89641747857" y1="116.73928859081" x2="226.06652139283" y2="122.113379847" style="stroke: #000000"></line>
  <line x1="222.48802027018" y1="117.28572632422" x2="223.75173679678" y2="122.63857795119" style="stroke: #000000"></line>
  <line x1="220.08952652576" y1="117.87411315946" x2="222.309980669" y2="126.59590101504" style="stroke: #000000"></line>
  <line x1="217.70166684975" y1="118.5042698682" x2="219.15142538209" y2="123.80975761184" style="stroke: #000000"></line>
  <line x1="215.32516860734" y1="119.1760044986" x2="216.86729986288" y2="124.45538241562" style="stroke: #000000"></line>
  <line x1="212.9607557029" y1="119.88911243379" x2="214.59478993353" y2="125.14077237453" style="stroke: #000000"></line>
  <line x1="210.60914835952" y1="120.64337645418" x2="212.33458782258" y2="125.86571871215" style="stroke: #000000"></line>
  <line x1="208.27106289957" y1="121.43856680364" x2="213.55490031022" y2="136.5409196739" style="stroke: #000000"></line>
  <line x1="205.94721152654" y1="122.2744412595" x2="207.85385701491" y2="127.43338523881" style="stroke: #000000"></line>
  <line x1="203.63830210806" y1="123.15074520629" x2="205.6346931922" y2="128.27562790145" style="stroke: #000000"></line>
  <line x1="201.34503796032" y1="124.06721171334" x2="203.43056652016" y2="129.15647203543" style="stroke: #000000"></line>
  <line x1="199.06811763377" y1="125.02356161607" x2="201.24214839712" y2="130.07564932711" style="stroke: #000000"></line>
  <line x1="196.80823470042" y1="126.01950360105" x2="200.50947772301" y2="134.22321008579" style="stroke: #000000"></line>
  <line x1="194.5660775425" y1="127.0547342947" x2="196.91509926346" y2="132.02787183094" style="stroke: #000000"></line>
  <line x1="192.34232914279" y1="128.12893835571" x2="194.77778631392" y2="133.06032237722" style="stroke: #000000"></line>
  <line x1="190.13766687661" y1="129.24178857112" x2="192.65881763405" y2="134.12991693055" style="stroke: #000000"></line>
  <line x1="187.95276230543" y1="130.39294595599" x2="190.55883868225" y2="135.23632968208" style="stroke: #000000"></line>
  <line x1="185.78828097235" y1="131.58205985661" x2="193.61434107442" y2="145.53744531452" style="stroke: #000000"></line>
  <line x1="183.64488219936" y1="132.80876805737" x2="186.41840267924" y2="137.55825057105" style="stroke: #000000"></line>
  <line x1="181.52321888648" y1="134.07269689108" x2="184.37920684496" y2="138.77305142889" style="stroke: #000000"></line>
  <line x1="179.42393731291" y1="135.37346135277" x2="182.36152278838" y2="140.02325614118" style="stroke: #000000"></line>
  <line x1="177.34767694017" y1="136.71066521697" x2="180.36596511564" y2="141.30848388345" style="stroke: #000000"></line>
  <line x1="175.29507021726" y1="138.08390115845" x2="180.36464172287" y2="145.52026080208" style="stroke: #000000"></line>
  <line x1="173.26674238808" y1="139.49275087622" x2="176.44365346133" y2="143.98243193757" style="stroke: #000000"></line>
  <line x1="171.26331130093" y1="140.93678522102" x2="174.5180942539" y2="145.37033773893" style="stroke: #000000"></line>
  <line x1="169.28538722035" y1="142.415564326" x2="172.61705061461" y2="146.79163779742" style="stroke: #000000"></line>
  <line x1="167.33357264114" y1="143.92863774071" x2="170.74110161976" y2="148.24589917128" style="stroke: #000000"></line>
  <line x1="165.40846210496" y1="145.47554456834" x2="175.53895402242" y2="157.85993528853" style="stroke: #000000"></line>
  <line x1="163.51064201911" y1="147.05581360608" x2="167.0667654742" y2="151.25152403129" style="stroke: #000000"></line>
  <line x1="161.64069047798" y1="148.66896348868" x2="165.26949756188" y2="152.80197197498" style="stroke: #000000"></line>
  <line x1="159.79917708693" y1="150.31450283505" x2="163.49956242984" y2="154.38355042803" style="stroke: #000000"></line>
  <line x1="157.98666278876" y1="151.99193039796" x2="161.75749921747" y2="155.99577762631" style="stroke: #000000"></line>
  <line x1="156.2036996929" y1="153.70073521674" x2="162.48756331667" y2="160.14379799447" style="stroke: #000000"></line>
  <line x1="154.45083090717" y1="155.44039677288" x2="158.35910249735" y2="159.31020467217" style="stroke: #000000"></line>
  <line x1="152.72859037239" y1="157.21038514862" x2="156.70380417417" y2="161.01139491316" style="stroke: #000000"></line>
  <line x1="151.03750269971" y1="159.01016118835" x2="155.07844782445" y2="162.74121499375" style="stroke: #000000"></line>
  <line x1="149.37808301081" y1="160.83917666286" x2="153.48352854749" y2="164.49913799398" style="stroke: #000000"></line>
  <line x1="147.75083678101" y1="162.69687443631" x2="159.87795064323" y2="173.13397697355" style="stroke: #000000"></line>
  <line x1="146.15625968527" y1="164.58268863597" x2="150.38693510386" y2="168.09714243457" style="stroke: #000000"></line>
  <line x1="144.59483744723" y1="166.49604482457" x2="148.88620418956" y2="169.93612788792" style="stroke: #000000"></line>
  <line x1="143.06704569121" y1="168.43636017526" x2="147.41779656541" y2="171.80102462075" style="stroke: #000000"></line>
  <line x1="141.5733497974" y1="170.40304364921" x2="145.98215952259" y2="173.69126456744" style="stroke: #000000"></line>
  <line x1="140.11420476003" y1="172.39549617557" x2="147.42142848554" y2="177.64949288525" style="stroke: #000000"></line>
  <line x1="138.69005504881" y1="174.41311083401" x2="143.21093630133" y2="177.54546341643" style="stroke: #000000"></line>
  <line x1="137.30133447355" y1="176.45527303955" x2="141.87619426433" y2="179.50824829243" style="stroke: #000000"></line>
  <line x1="135.94846605197" y1="178.52136072979" x2="140.57591083441" y2="181.49402868729" style="stroke: #000000"></line>
  <line x1="134.63186188092" y1="180.61074455443" x2="139.3104820905" y2="183.50219971309" style="stroke: #000000"></line>
  <line x1="133.35192301077" y1="182.7227880669" x2="147.10718259966" y2="190.89547634202" style="stroke: #000000"></line>
  <line x1="132.1090393233" y1="184.85684791829" x2="136.88571977363" y2="187.58326019002" style="stroke: #000000"></line>
  <line x1="130.90358941292" y1="187.0122740533" x2="135.72712480677" y2="189.65490651059" style="stroke: #000000"></line>
  <line x1="129.73594047136" y1="189.18840990824" x2="134.60486151311" y2="191.74645757965" style="stroke: #000000"></line>
  <line x1="128.60644817579" y1="191.38459261105" x2="133.51927174493" y2="193.85727629048" style="stroke: #000000"></line>
  <line x1="127.51545658051" y1="193.60015318321" x2="135.62401411249" y2="197.50544379347" style="stroke: #000000"></line>
  <line x1="126.46329801213" y1="195.83441674351" x2="131.4594242378" y2="198.1341390609" style="stroke: #000000"></line>
  <line x1="125.45029296833" y1="198.08670271362" x2="130.48579394836" y2="200.29888034665" style="stroke: #000000"></line>
  <line x1="124.47675002027" y1="200.35632502541" x2="129.55009189227" y2="202.48028412336" style="stroke: #000000"></line>
  <line x1="123.54296571856" y1="202.64259232994" x2="128.65260309346" y2="204.67768591429" style="stroke: #000000"></line>
  <line x1="122.64922450295" y1="204.94480820804" x2="137.6146832164" y2="210.60475922339" style="stroke: #000000"></line>
  <line x1="121.79579861566" y1="207.26227138247" x2="126.97334707937" y2="209.11780147007" style="stroke: #000000"></line>
  <line x1="120.9829480185" y1="209.59427593147" x2="126.19209138174" y2="211.35916273272" style="stroke: #000000"></line>
  <line x1="120.21092031362" y1="211.94011150388" x2="125.45007182086" y2="213.61381741716" style="stroke: #000000"></line>
  <line x1="119.47995066814" y1="214.29906353546" x2="124.74751442309" y2="215.88107873373" style="stroke: #000000"></line>
  <line x1="118.7902617425" y1="216.67041346656" x2="127.45377866348" y2="219.10833769837" style="stroke: #000000"></line>
  <line x1="118.14206362263" y1="219.05343896103" x2="123.46163005426" y2="220.45065511449" style="stroke: #000000"></line>
  <line x1="117.53555375595" y1="221.44741412621" x2="122.87869477604" y2="222.75157824145" style="stroke: #000000"></line>
  <line x1="116.97091689125" y1="223.85160973409" x2="122.33600492728" y2="225.06232455007" style="stroke: #000000"></line>
  <line x1="116.44832502238" y1="226.26529344337" x2="121.83372581656" y2="227.38219016465" style="stroke: #000000"></line>
  <circle cx="255" cy="255" r="155" style="stroke: black; fill:none"></circle>
  <circle cx="255" cy="255" r="142" style="stroke: black; fill:none"></circle>
  <circle cx="255" cy="255" r="85" style="stroke: black; fill:none"></circle>
  
</svg>