<svg xmlns:xlink="http://www.w3.org/1999/xlink" style="position: relative; overflow: hidden;" version="1.1" width="800" height="800" viewBox="0 0 800 800"><g id="chart-astrology"><g id="chart-astrology-aspects"><line x1="448.1038147656444" y1="568.2587977045853" x2="230.67185558338042" y2="355.80747225577124" stroke="#27AE60" stroke-width="1" data-name="trine" data-degree="120" data-point="Mars" data-toPoint="Saturn" data-precision="0.5820"></line><line x1="316.81708464974895" y1="553.966238486991" x2="574.7761964554369" y2="391.152336321348" stroke="#27AE60" stroke-width="1" data-name="trine" data-degree="120" data-point="Sun" data-toPoint="Ds" data-precision="1.2789"></line><line x1="483.18291535025116" y1="246.03376151300913" x2="248.0708155273316" y2="313.15230051711274" stroke="#FF4500" stroke-width="1" data-name="square" data-degree="90" data-point="Neptune" data-toPoint="As" data-precision="1.3728"></line><line x1="316.81708464974895" y1="553.966238486991" x2="248.0708155273316" y2="313.15230051711274" stroke="#FF4500" stroke-width="1" data-name="square" data-degree="90" data-point="Neptune" data-toPoint="Ds" data-precision="1.3728"></line><line x1="483.18291535025116" y1="246.03376151300913" x2="479.38927684472543" y2="244.04377946977704" stroke="transparent" stroke-width="1" data-name="conjunction" data-degree="0" data-point="Sirius" data-toPoint="As" data-precision="1.4026"></line><line x1="316.81708464974895" y1="553.966238486991" x2="479.38927684472543" y2="244.04377946977704" stroke="#27AE60" stroke-width="1" data-name="opposition" data-degree="180" data-point="Sirius" data-toPoint="Ds" data-precision="1.4026"></line><line x1="526.2103306325358" y1="278.7731364687431" x2="230.67185558338042" y2="355.80747225577124" stroke="#27AE60" stroke-width="1" data-name="trine" data-degree="120" data-point="Mars" data-toPoint="Chiron" data-precision="1.5266"></line><line x1="233.57218986448171" y1="345.90024017155093" x2="526.2103306325358" y2="278.7731364687431" stroke="#27AE60" stroke-width="1" data-name="trine" data-degree="120" data-point="Chiron" data-toPoint="Mc" data-precision="1.8537"></line><line x1="526.2103306325358" y1="278.7731364687431" x2="448.1038147656444" y2="568.2587977045853" stroke="#27AE60" stroke-width="1" data-name="trine" data-degree="120" data-point="Saturn" data-toPoint="Chiron" data-precision="2.1086"></line><line x1="516.2756805152272" y1="269.2140446350572" x2="448.1038147656444" y2="568.2587977045853" stroke="#27AE60" stroke-width="1" data-name="trine" data-degree="120" data-point="Saturn" data-toPoint="Pluto" data-precision="2.4064"></line><line x1="573.5883497667307" y1="422.18298503951047" x2="572.4665138554124" y2="429.66987695560675" stroke="transparent" stroke-width="1" data-name="conjunction" data-degree="0" data-point="Mercury" data-toPoint="Venus" data-precision="2.4788"></line><line x1="248.0708155273316" y1="313.15230051711274" x2="493.8003754481086" y2="252.2620916426868" stroke="#FF4500" stroke-width="1" data-name="square" data-degree="90" data-point="Moon" data-toPoint="Neptune" data-precision="2.6582"></line><line x1="479.38927684472543" y1="244.04377946977704" x2="248.0708155273316" y2="313.15230051711274" stroke="#FF4500" stroke-width="1" data-name="square" data-degree="90" data-point="Neptune" data-toPoint="Sirius" data-precision="2.7754"></line><line x1="248.0708155273316" y1="313.15230051711274" x2="546.5932690755797" y2="304.42064311926606" stroke="#27AE60" stroke-width="1" data-name="trine" data-degree="120" data-point="Jupiter" data-toPoint="Neptune" data-precision="2.8582"></line><line x1="297.1170726132802" y1="258.43692835933894" x2="546.5932690755797" y2="304.42064311926606" stroke="#FF4500" stroke-width="1" data-name="square" data-degree="90" data-point="Jupiter" data-toPoint="Uranus" data-precision="2.9038"></line><line x1="516.2756805152272" y1="269.2140446350572" x2="230.67185558338042" y2="355.80747225577124" stroke="#27AE60" stroke-width="1" data-name="trine" data-degree="120" data-point="Mars" data-toPoint="Pluto" data-precision="2.9884"></line><line x1="297.1170726132802" y1="258.43692835933894" x2="574.7761964554369" y2="391.152336321348" stroke="#27AE60" stroke-width="1" data-name="trine" data-degree="120" data-point="Sun" data-toPoint="Uranus" data-precision="3.1103"></line><line x1="233.57218986448171" y1="345.90024017155093" x2="230.67185558338042" y2="355.80747225577124" stroke="transparent" stroke-width="1" data-name="conjunction" data-degree="0" data-point="Mars" data-toPoint="Mc" data-precision="3.3803"></line><line x1="566.4278101355184" y1="454.09975982844895" x2="230.67185558338042" y2="355.80747225577124" stroke="#27AE60" stroke-width="1" data-name="opposition" data-degree="180" data-point="Mars" data-toPoint="Ic" data-precision="3.3803"></line><line x1="233.57218986448171" y1="345.90024017155093" x2="448.1038147656444" y2="568.2587977045853" stroke="#27AE60" stroke-width="1" data-name="trine" data-degree="120" data-point="Saturn" data-toPoint="Mc" data-precision="3.9623"></line><line x1="483.18291535025116" y1="246.03376151300913" x2="493.8003754481086" y2="252.2620916426868" stroke="transparent" stroke-width="1" data-name="conjunction" data-degree="0" data-point="Moon" data-toPoint="As" data-precision="4.0310"></line><line x1="316.81708464974895" y1="553.966238486991" x2="493.8003754481086" y2="252.2620916426868" stroke="#27AE60" stroke-width="1" data-name="opposition" data-degree="180" data-point="Moon" data-toPoint="Ds" data-precision="4.0310"></line><line x1="526.2103306325358" y1="278.7731364687431" x2="516.2756805152272" y2="269.2140446350572" stroke="transparent" stroke-width="1" data-name="conjunction" data-degree="0" data-point="Pluto" data-toPoint="Chiron" data-precision="4.5150"></line><line x1="230.67185558338042" y1="355.80747225577124" x2="572.4665138554124" y2="429.66987695560675" stroke="#27AE60" stroke-width="1" data-name="opposition" data-degree="180" data-point="Mercury" data-toPoint="Mars" data-precision="4.8660"></line></g><g id="chart-astrology-radix"><g id="chart-astrology-bg"><path d="M 225, 400 l -131.25, 1.607348923880901e-14 A 306.25, 306.25,0 ,1, 0, 93.7500046644542, 399.94654929192916 l 131.24999800094818, 0.022907446316081815 A 175, 175,0 ,1, 1, 225, 400" fill="#fff"></path></g><g id="chart-astrology-radix-signs"><path d="M 545.5701018629395, 130.55908264776593 l 20.795728837562788, -38.49155962174772 A 350, 350,0 ,0, 0, 390.11079722134514, 50.139736940013904 l 1.2361503473318551, 43.73253288249826 A 306.25, 306.25,0 ,0, 1, 545.5701018629395, 130.55908264776593" fill="#FF4500" id="chart-astrology-radix-signs-0" stroke="none" stroke-width="0"></path><path d="M 391.346947568677, 93.87226982251218 l -1.2361503473318551, -43.73253288249826 A 350, 350,0 ,0, 0, 216.50556764051615, 101.95672580467311 l 22.93680404493548, 37.25540927441586 A 306.25, 306.25,0 ,0, 1, 391.346947568677, 93.87226982251218" fill="#8B4513" id="chart-astrology-radix-signs-1" stroke="none" stroke-width="0"></path><path d="M 239.44237168545163, 139.21213507908897 l -22.93680404493548, -37.25540927441586 A 350, 350,0 ,0, 0, 92.06752302601825, 233.63416929949761 l 38.49155962174772, 20.795728837562798 A 306.25, 306.25,0 ,0, 1, 239.44237168545163, 139.21213507908897" fill="#87CEEB" id="chart-astrology-radix-signs-2" stroke="none" stroke-width="0"></path><path d="M 130.559082647766, 254.4298981370604 l -38.49155962174772, -20.795728837562798 A 350, 350,0 ,0, 0, 50.139736940013904, 409.8892027786548 l 43.73253288249826, -1.2361503473318525 A 306.25, 306.25,0 ,0, 1, 130.559082647766, 254.4298981370604" fill="#27AE60" id="chart-astrology-radix-signs-3" stroke="none" stroke-width="0"></path><path d="M 93.87226982251218, 408.653052431323 l -43.73253288249826, 1.2361503473318525 A 350, 350,0 ,0, 0, 101.95672580467311, 583.4944323594839 l 37.25540927441586, -22.93680404493548 A 306.25, 306.25,0 ,0, 1, 93.87226982251218, 408.653052431323" fill="#FF4500" id="chart-astrology-radix-signs-4" stroke="none" stroke-width="0"></path><path d="M 139.21213507908897, 560.5576283145483 l -37.25540927441586, 22.93680404493548 A 350, 350,0 ,0, 0, 233.63416929949787, 707.9324769739819 l 20.795728837562766, -38.49155962174773 A 306.25, 306.25,0 ,0, 1, 139.21213507908897, 560.5576283145483" fill="#8B4513" id="chart-astrology-radix-signs-5" stroke="none" stroke-width="0"></path><path d="M 254.42989813706063, 669.4409173522341 l -20.795728837562766, 38.49155962174773 A 350, 350,0 ,0, 0, 409.8892027786548, 749.8602630599861 l -1.2361503473318498, -43.73253288249826 A 306.25, 306.25,0 ,0, 1, 254.42989813706063, 669.4409173522341" fill="#87CEEB" id="chart-astrology-radix-signs-6" stroke="none" stroke-width="0"></path><path d="M 408.653052431323, 706.1277301774878 l 1.2361503473318498, 43.73253288249826 A 350, 350,0 ,0, 0, 583.4944323594835, 698.0432741953271 l -22.936804044935442, -37.25540927441588 A 306.25, 306.25,0 ,0, 1, 408.653052431323, 706.1277301774878" fill="#27AE60" id="chart-astrology-radix-signs-7" stroke="none" stroke-width="0"></path><path d="M 560.5576283145481, 660.7878649209113 l 22.936804044935442, 37.25540927441588 A 350, 350,0 ,0, 0, 707.9324769739819, 566.3658307005021 l -38.49155962174773, -20.79572883756277 A 306.25, 306.25,0 ,0, 1, 560.5576283145481, 660.7878649209113" fill="#FF4500" id="chart-astrology-radix-signs-8" stroke="none" stroke-width="0"></path><path d="M 669.4409173522341, 545.5701018629394 l 38.49155962174773, 20.79572883756277 A 350, 350,0 ,0, 0, 749.8602630599861, 390.11079722134514 l -43.73253288249826, 1.2361503473318567 A 306.25, 306.25,0 ,0, 1, 669.4409173522341, 545.5701018629394" fill="#8B4513" id="chart-astrology-radix-signs-9" stroke="none" stroke-width="0"></path><path d="M 706.1277301774878, 391.346947568677 l 43.73253288249826, -1.2361503473318567 A 350, 350,0 ,0, 0, 698.0432741953268, 216.5055676405162 l -37.25540927441586, 22.936804044935474 A 306.25, 306.25,0 ,0, 1, 706.1277301774878, 391.346947568677" fill="#87CEEB" id="chart-astrology-radix-signs-10" stroke="none" stroke-width="0"></path><path d="M 660.787864920911, 239.4423716854517 l 37.25540927441586, -22.936804044935474 A 350, 350,0 ,0, 0, 566.3658307005023, 92.06752302601825 l -20.795728837562788, 38.49155962174772 A 306.25, 306.25,0 ,0, 1, 660.787864920911, 239.4423716854517" fill="#27AE60" id="chart-astrology-radix-signs-11" stroke="none" stroke-width="0"></path><g id="chart-astrology-radix-signs-Aries" transform="translate(0,0) scale(1)"><path d="m 467, 79 -0.9,-0.9 0,-1.8 0.9,-1.8 1.8,-0.8999998 1.8,0 1.8,0.8999998 0.9,0.9 0.9,1.8 0.9,4.5 m -9,-5.4 1.8,-1.8 1.8,0 1.8,0.9 0.9,0.9 0.9,1.8 0.9,3.6 0,9.9 m 8.1,-12.6 0.9,-0.9 0,-1.8 -0.9,-1.8 -1.8,-0.8999998 -1.8,0 -1.8,0.8999998 -0.9,0.9 -0.9,1.8 -0.9,4.5 m 9,-5.4 -1.8,-1.8 -1.8,0 -1.8,0.9 -0.9,0.9 -0.9,1.8 -0.9,3.6 0,9.9" stroke="#000" stroke-width="1.5" fill="none"></path></g><g id="chart-astrology-radix-signs-Taurus" transform="translate(0,0) scale(1)"><path d="m 297, 75 1,4 1,2 2,2 3,1 4,0 3,-1 2,-2 1,-2 1,-4 m -18,0 1,3 1,2 2,2 3,1 4,0 3,-1 2,-2 1,-2 1,-3 m -11,8 -2,1 -1,1 -1,2 0,3 1,2 2,2 2,1 2,0 2,-1 2,-2 1,-2 0,-3 -1,-2 -1,-1 -2,-1 m -4,1 -2,1 -1,2 0,3 1,3 m 8,0 1,-3 0,-3 -1,-2 -2,-1" stroke="#000" stroke-width="1.5" fill="none"></path></g><g id="chart-astrology-radix-signs-Gemini" transform="translate(0,0) scale(1)"><path d="m 156, 169 0,11.546414 m 0.9622011,-10.5842129 0,9.6220117 m 7.6976097,-9.6220117 0,9.6220117 m 0.962201,-10.5842128 0,11.546414 m -13.4708165,-14.4330172 1.9244023,1.924402 1.9244024,0.9622012 2.8866038,0.9622011 3.848804,0 2.886604,-0.9622011 1.924402,-0.9622012 1.924403,-1.924402 m -17.3196215,17.3196207 1.9244023,-1.9244024 1.9244024,-0.9622011 2.8866038,-0.9622012 3.848804,0 2.886604,0.9622012 1.924402,0.9622011 1.924403,1.9244024" stroke="#000" stroke-width="1.5" fill="none"></path></g><g id="chart-astrology-radix-signs-Cancer" transform="translate(0,0) scale(1)"><path d="m 90, 315 -15,0 -2,1 -1,2 0,2 1,2 2,1 2,0 2,-1 1,-2 0,-2 -1,-2 11,0 m -18,3 1,2 1,1 2,1 m 4,-4 -1,-2 -1,-1 -2,-1 m -4,15 15,0 2,-1 1,-2 0,-2 -1,-2 -2,-1 -2,0 -2,1 -1,2 0,2 1,2 -11,0 m 18,-3 -1,-2 -1,-1 -2,-1 m -4,4 1,2 1,1 2,1" stroke="#000" stroke-width="1.5" fill="none"></path></g><g id="chart-astrology-radix-signs-Leo" transform="translate(0,0) scale(1)"><path d="m 83, 498 -2,-1 -1,0 -2,1 -1,2 0,1 1,2 2,1 1,0 2,-1 1,-2 0,-1 -1,-2 -5,-5 -1,-2 0,-3 1,-2 2,-1 3,-1 4,0 4,1 2,2 1,2 0,3 -1,3 -3,3 -1,2 0,2 1,2 2,0 1,-1 1,-2 m -13,-5 -2,-3 -1,-2 0,-3 1,-2 1,-1 m 7,-1 3,1 2,2 1,2 0,3 -1,3 -2,3" stroke="#000" stroke-width="1.5" fill="none"></path></g><g id="chart-astrology-radix-signs-Virgo" transform="translate(0,0) scale(1)"><path d="m 166, 633 2.5894868,-2.5894868 1.7263245,2.5894868 0,9.4947847 m -2.5894868,-11.2211092 1.7263245,2.5894867 0,8.6316225 m 0.8631623,-9.4947847 2.5894867,-2.5894868 1.72632451,2.5894868 0,8.6316224 m -2.58948671,-10.3579469 1.72632447,2.5894867 0,7.7684602 m 0.86316224,-8.6316224 2.58948679,-2.5894868 1.7263244,2.5894868 0,13.8105959 m -2.5894867,-15.5369204 1.7263245,2.5894867 0,12.9474337 m 0.8631622,-13.8105959 2.5894868,-2.5894868 0.8631622,1.7263245 0.8631623,2.5894868 0,2.5894867 -0.8631623,2.58948673 -0.8631622,1.72632447 -1.7263245,1.7263245 -2.5894867,1.7263245 -4.3158113,1.7263245 m 7.7684602,-15.5369204 0.8631623,0.8631622 0.8631622,2.5894868 0,2.5894867 -0.8631622,2.58948673 -0.8631623,1.72632447 -1.7263245,1.7263245 -2.5894867,1.7263245 -3.452649,1.7263245" stroke="#000" stroke-width="1.5" fill="none"></path></g><g id="chart-astrology-radix-signs-Libra" transform="translate(0,0) scale(1)"><path d="m 322, 711 c 0.7519,1e-5 1.3924,0.12227 1.9316,0.35156 0.6619,0.28495 1.2134,0.63854 1.666,1.0625 0.4838,0.45481 0.853,0.97255 1.1172,1.56641 0.2467,0.56612 0.3711,1.17397 0.3711,1.83789 0,0.64113 -0.1244,1.23948 -0.373,1.80859 -0.1624,0.36305 -0.3631,0.69725 -0.6055,1.00586 l -0.6367,0.8086 4.3789,0 0,0.67187 -5.4024,0 0,-0.91797 c 0.2173,-0.1385 0.4379,-0.27244 0.6367,-0.44726 0.4215,-0.36876 0.7529,-0.82784 0.9883,-1.35547 0.2215,-0.50074 0.334,-1.0358 0.334,-1.58594 0,-0.55653 -0.1122,-1.09434 -0.334,-1.5957 l -0,-0.002 0,-0.004 c -0.2292,-0.49901 -0.5581,-0.94778 -0.9746,-1.33789 l -0,-0.002 -0,-0.002 c -0.3967,-0.36155 -0.8679,-0.65723 -1.4062,-0.88476 l -0,0 c -0.4984,-0.20903 -1.0622,-0.30663 -1.6817,-0.30664 -0.5926,1e-5 -1.1526,0.10008 -1.6699,0.30273 l -0,0 c -0.5261,0.20799 -1.0032,0.5067 -1.4199,0.88867 l -0,0.002 -0,0.002 c -0.4166,0.39011 -0.7454,0.83887 -0.9746,1.33789 l 0,0.004 -0,0.002 c -0.2218,0.50136 -0.334,1.03915 -0.334,1.5957 0,0.55015 0.1125,1.08519 0.334,1.58594 l 0,0.002 0,0.004 c 0.229,0.49855 0.5574,0.94911 0.9746,1.33984 0.1876,0.17482 0.4143,0.31484 0.6367,0.45703 l 0,0.91797 -5.3906,0 0,-0.67187 4.3789,0 -0.6367,-0.8086 c -0.2428,-0.30904 -0.443,-0.64418 -0.6055,-1.00781 -0.2487,-0.56911 -0.3731,-1.16552 -0.3731,-1.80664 0,-0.66391 0.1244,-1.27178 0.3711,-1.83789 l 0,-0.002 c 3e-4,-5.8e-4 -2e-4,-10e-4 0,-0.002 0.2641,-0.59218 0.6326,-1.10871 1.1153,-1.5625 0.4847,-0.45571 1.0332,-0.80585 1.6562,-1.05859 0.5861,-0.23488 1.2294,-0.35546 1.9414,-0.35547 z m -7.8496,13.45899 15.6992,0 0,0.67187 -15.6992,0 z" stroke="#000" stroke-width="1.5" fill="none"></path></g><g id="chart-astrology-radix-signs-Scorpio" transform="translate(0,0) scale(1)"><path d="m 485, 710 2.3781101,-2.3781101 2.3781101,2.3781101 0,9.5124404 m -3.1708135,-11.0978471 2.3781101,2.3781101 0,8.719737 m 0.7927034,-9.5124404 2.3781101,-2.3781101 2.37811007,2.3781101 0,9.5124404 m -3.17081347,-11.0978471 2.3781101,2.3781101 0,8.719737 m 0.79270337,-9.5124404 2.37811013,-2.3781101 2.3781101,2.3781101 0,8.719737 1.5854067,1.5854068 m -4.7562202,-11.8905505 2.3781101,2.3781101 0,8.719737 1.5854067,1.5854067 2.3781101,-2.3781101" stroke="#000" stroke-width="1.5" fill="none"></path></g><g id="chart-astrology-radix-signs-Sagittarius" transform="translate(0,0) scale(1)"><path d="m 645, 616 -17.11444,17.11444 m 17.11444,-17.11444 -3.2089575,1.0696525 -6.417915,0 m 7.4875675,1.0696525 -3.2089575,0 -4.27861,-1.0696525 m 9.6268725,-1.0696525 -1.0696525,3.2089575 0,6.41791504 m -1.0696525,-7.48756754 0,3.2089575 1.0696525,4.27861004 m -8.55722,0 -7.4875675,0 m 6.417915,1.06965246 -3.2089575,0 -3.2089575,-1.06965246 m 7.4875675,0 0,7.48756746 m -1.0696525,-6.417915 0,3.2089575 1.0696525,3.2089575" stroke="#000" stroke-width="1.5" fill="none"></path></g><g id="chart-astrology-radix-signs-Capricorn" transform="translate(0,0) scale(1)"><path d="m 710, 473 1.8047633,-3.6095267 4.5119084,9.0238168 m -4.5119084,-7.2190534 4.5119084,9.0238167 2.707145,-6.3166717 4.5119084,0 2.707145,-0.9023817 0.9023817,-1.8047633 0,-1.8047634 -0.9023817,-1.8047633 -1.8047634,-0.9023817 -0.9023816,0 -1.8047634,0.9023817 -0.9023817,1.8047633 0,1.8047634 0.9023817,2.707145 0.9023817,1.80476336 0.9023817,2.70714504 0,2.707145 -1.8047634,1.8047633 m 1.8047634,-16.2428701 -0.9023817,0.9023817 -0.9023817,1.8047633 0,1.8047634 1.8047634,3.6095267 0.9023816,2.707145 0,2.707145 -0.9023816,1.8047634 -1.8047634,0.9023816" stroke="#000" stroke-width="1.5" fill="none"></path></g><g id="chart-astrology-radix-signs-Aquarius" transform="translate(0,0) scale(1)"><path d="m 706, 304 2.8866035,-2.8866035 3.8488047,1.9244023 m -4.8110059,-0.9622011 3.8488047,1.9244023 2.8866035,-2.8866035 2.8866035,1.9244023 m -3.84880467,-0.9622011 2.88660347,1.9244023 2.8866035,-2.8866035 1.9244024,1.9244023 m -2.8866035,-0.9622011 1.9244023,1.9244023 2.8866035,-2.8866035 m -17.319621,8.6598105 2.8866035,-2.88660348 3.8488047,1.92440238 m -4.8110059,-0.96220121 3.8488047,1.92440231 2.8866035,-2.88660348 2.8866035,1.92440238 m -3.84880467,-0.96220121 2.88660347,1.92440231 2.8866035,-2.88660348 1.9244024,1.92440238 m -2.8866035,-0.96220121 1.9244023,1.92440231 2.8866035,-2.88660348" stroke="#000" stroke-width="1.5" fill="none"></path></g><g id="chart-astrology-radix-signs-Pisces" transform="translate(0,0) scale(1)"><path d="m 617, 154 4,2 2,2 1,3 0,3 -1,3 -2,2 -4,2 m 0,-17 3,1 2,1 2,2 1,3 m 0,3 -1,3 -2,2 -2,1 -3,1 m 16,-17 -3,1 -2,1 -2,2 -1,3 m 0,3 1,3 2,2 2,1 3,1 m 0,-17 -4,2 -2,2 -1,3 0,3 1,3 2,2 4,2 m -17,-9 18,0 m -18,1 18,0" stroke="#000" stroke-width="1.5" fill="none"></path></g></g><g id="chart-astrology-radix-ruler"><line x1="540.3711696535488" y1="140.18197255320285" x2="545.5701018629395" y2="130.55908264776593" stroke="#333" stroke-width="1"></line><line x1="517.1923818124452" y1="128.9365050373325" x2="519.3626111052682" y2="123.91681068617197" stroke="#333" stroke-width="1"></line><line x1="493.12168918305406" y1="119.7539943907413" x2="496.5706406342782" y2="109.37451270150945" stroke="#333" stroke-width="1"></line><line x1="468.3422842705666" y1="112.70432506400124" x2="469.6078821274289" y2="107.38403478740867" stroke="#333" stroke-width="1"></line><line x1="443.0427533085806" y1="107.84114929739559" x2="444.6369293570465" y2="97.02045112322509" stroke="#333" stroke-width="1"></line><line x1="417.41564100399125" y1="105.2014787949741" x2="417.73815287443557" y2="99.74224692080696" stroke="#333" stroke-width="1"></line><line x1="391.65598515551" y1="104.80540304313678" x2="391.346947568677" y2="93.87226982251218" stroke="#333" stroke-width="1"></line><line x1="365.95983229824924" y1="106.65593641751212" x2="365.3294588222909" y2="101.22363894376235" stroke="#333" stroke-width="1"></line><line x1="340.522745671214" y1="110.73899524173862" x2="338.3198843997775" y2="100.02562469513634" stroke="#333" stroke-width="1"></line><line x1="315.53831686296894" y1="117.02350497274557" x2="313.97421161969055" y2="111.78319950927789" stroke="#333" stroke-width="1"></line><line x1="291.19669246275527" y1="125.46163669678924" x2="287.1669403317462" y2="115.29354916704068" stroke="#333" stroke-width="1"></line><line x1="267.6831269301334" y1="135.98917113636645" x2="265.2328144658766" y2="131.1000817129658" stroke="#333" stroke-width="1"></line><line x1="245.1765726966855" y1="148.52598739769294" x2="239.44237168545163" y2="139.21213507908897" stroke="#333" stroke-width="1"></line><line x1="223.84831822995727" y1="162.97667273908334" x2="220.58625004903055" y2="158.58735186388117" stroke="#333" stroke-width="1"></line><line x1="203.86068442479265" y1="179.2312487195273" x2="196.5962653294146" y2="171.054628301732" stroke="#333" stroke-width="1"></line><line x1="185.36578924331212" y1="197.16600820103233" x2="181.3910816367068" y2="193.40982316771812" stroke="#333" stroke-width="1"></line><line x1="168.50439000536983" y1="216.64445683464032" x2="159.93047852408722" y2="209.85351079147887" stroke="#333" stroke-width="1"></line><line x1="153.4048121403577" y1="237.51835186484067" x2="148.83823458740136" y2="234.5094324549303" stroke="#333" stroke-width="1"></line><line x1="140.1819725532029" y1="259.6288303464511" x2="130.559082647766" y2="254.4298981370604" stroke="#333" stroke-width="1"></line><line x1="128.9365050373325" y1="282.8076181875548" x2="123.91681068617197" y2="280.63738889473177" stroke="#333" stroke-width="1"></line><line x1="119.7539943907413" y1="306.87831081694594" x2="109.37451270150945" y2="303.4293593657217" stroke="#333" stroke-width="1"></line><line x1="112.70432506400118" y1="331.6577157294335" x2="107.38403478740861" y2="330.3921178725712" stroke="#333" stroke-width="1"></line><line x1="107.84114929739565" y1="356.95724669141936" x2="97.02045112322509" y2="355.3630706429534" stroke="#333" stroke-width="1"></line><line x1="105.20147879497415" y1="382.58435899600863" x2="99.74224692080696" y2="382.2618471255644" stroke="#333" stroke-width="1"></line><line x1="104.80540304313678" y1="408.34401484449" x2="93.87226982251218" y2="408.653052431323" stroke="#333" stroke-width="1"></line><line x1="106.65593641751212" y1="434.04016770175076" x2="101.22363894376235" y2="434.6705411777091" stroke="#333" stroke-width="1"></line><line x1="110.73899524173862" y1="459.47725432878605" x2="100.02562469513634" y2="461.68011560022256" stroke="#333" stroke-width="1"></line><line x1="117.02350497274551" y1="484.461683137031" x2="111.78319950927784" y2="486.02578838030934" stroke="#333" stroke-width="1"></line><line x1="125.46163669678924" y1="508.80330753724473" x2="115.29354916704068" y2="512.8330596682538" stroke="#333" stroke-width="1"></line><line x1="135.98917113636645" y1="532.3168730698666" x2="131.1000817129658" y2="534.7671855341234" stroke="#333" stroke-width="1"></line><line x1="148.52598739769294" y1="554.8234273033145" x2="139.21213507908897" y2="560.5576283145483" stroke="#333" stroke-width="1"></line><line x1="162.97667273908326" y1="576.1516817700426" x2="158.58735186388108" y2="579.4137499509693" stroke="#333" stroke-width="1"></line><line x1="179.23124871952726" y1="596.1393155752073" x2="171.05462830173198" y2="603.4037346705854" stroke="#333" stroke-width="1"></line><line x1="197.1660082010323" y1="614.6342107566878" x2="193.4098231677181" y2="618.6089183632932" stroke="#333" stroke-width="1"></line><line x1="216.6444568346403" y1="631.4956099946302" x2="209.8535107914788" y2="640.0695214759128" stroke="#333" stroke-width="1"></line><line x1="237.51835186484064" y1="646.5951878596422" x2="234.50943245493028" y2="651.1617654125986" stroke="#333" stroke-width="1"></line><line x1="259.6288303464513" y1="659.8180274467973" x2="254.42989813706063" y2="669.4409173522341" stroke="#333" stroke-width="1"></line><line x1="282.8076181875547" y1="671.0634949626674" x2="280.6373888947316" y2="676.0831893138279" stroke="#333" stroke-width="1"></line><line x1="306.87831081694605" y1="680.2460056092588" x2="303.42935936572184" y2="690.6254872984905" stroke="#333" stroke-width="1"></line><line x1="331.6577157294335" y1="687.2956749359987" x2="330.39211787257113" y2="692.6159652125914" stroke="#333" stroke-width="1"></line><line x1="356.9572466914192" y1="692.1588507026044" x2="355.36307064295323" y2="702.979548876775" stroke="#333" stroke-width="1"></line><line x1="382.58435899600875" y1="694.798521205026" x2="382.2618471255645" y2="700.257753079193" stroke="#333" stroke-width="1"></line><line x1="408.34401484449" y1="695.1945969568633" x2="408.653052431323" y2="706.1277301774878" stroke="#333" stroke-width="1"></line><line x1="434.0401677017507" y1="693.3440635824879" x2="434.6705411777091" y2="698.7763610562376" stroke="#333" stroke-width="1"></line><line x1="459.47725432878593" y1="689.2610047582614" x2="461.68011560022245" y2="699.9743753048637" stroke="#333" stroke-width="1"></line><line x1="484.46168313703095" y1="682.9764950272545" x2="486.02578838030934" y2="688.2168004907221" stroke="#333" stroke-width="1"></line><line x1="508.80330753724456" y1="674.5383633032109" x2="512.8330596682537" y2="684.7064508329594" stroke="#333" stroke-width="1"></line><line x1="532.3168730698667" y1="664.0108288636336" x2="534.7671855341234" y2="668.8999182870341" stroke="#333" stroke-width="1"></line><line x1="554.8234273033142" y1="651.4740126023072" x2="560.5576283145481" y2="660.7878649209113" stroke="#333" stroke-width="1"></line><line x1="576.1516817700427" y1="637.0233272609166" x2="579.4137499509694" y2="641.4126481361188" stroke="#333" stroke-width="1"></line><line x1="596.1393155752073" y1="620.7687512804728" x2="603.4037346705854" y2="628.945371698268" stroke="#333" stroke-width="1"></line><line x1="614.6342107566878" y1="602.8339917989676" x2="618.6089183632932" y2="606.5901768322819" stroke="#333" stroke-width="1"></line><line x1="631.4956099946302" y1="583.3555431653597" x2="640.0695214759128" y2="590.1464892085212" stroke="#333" stroke-width="1"></line><line x1="646.5951878596425" y1="562.4816481351592" x2="651.1617654125987" y2="565.4905675450696" stroke="#333" stroke-width="1"></line><line x1="659.8180274467973" y1="540.3711696535487" x2="669.4409173522341" y2="545.5701018629394" stroke="#333" stroke-width="1"></line><line x1="671.0634949626674" y1="517.1923818124453" x2="676.0831893138279" y2="519.3626111052685" stroke="#333" stroke-width="1"></line><line x1="680.2460056092588" y1="493.12168918305395" x2="690.6254872984905" y2="496.57064063427816" stroke="#333" stroke-width="1"></line><line x1="687.2956749359987" y1="468.3422842705665" x2="692.6159652125914" y2="469.60788212742887" stroke="#333" stroke-width="1"></line><line x1="692.1588507026044" y1="443.0427533085808" x2="702.979548876775" y2="444.63692935704677" stroke="#333" stroke-width="1"></line><line x1="694.798521205026" y1="417.41564100399125" x2="700.257753079193" y2="417.7381528744355" stroke="#333" stroke-width="1"></line><line x1="695.1945969568633" y1="391.65598515551005" x2="706.1277301774878" y2="391.3469475686771" stroke="#333" stroke-width="1"></line><line x1="693.3440635824878" y1="365.959832298249" x2="698.7763610562376" y2="365.3294588222907" stroke="#333" stroke-width="1"></line><line x1="689.2610047582614" y1="340.5227456712141" x2="699.9743753048637" y2="338.3198843997776" stroke="#333" stroke-width="1"></line><line x1="682.9764950272545" y1="315.53831686296905" x2="688.2168004907221" y2="313.97421161969066" stroke="#333" stroke-width="1"></line><line x1="674.5383633032106" y1="291.1966924627552" x2="684.7064508329593" y2="287.1669403317461" stroke="#333" stroke-width="1"></line><line x1="664.0108288636336" y1="267.6831269301333" x2="668.8999182870341" y2="265.2328144658766" stroke="#333" stroke-width="1"></line><line x1="651.4740126023072" y1="245.17657269668575" x2="660.7878649209113" y2="239.4423716854519" stroke="#333" stroke-width="1"></line><line x1="637.0233272609166" y1="223.84831822995736" x2="641.4126481361188" y2="220.58625004903064" stroke="#333" stroke-width="1"></line><line x1="620.7687512804728" y1="203.86068442479268" x2="628.945371698268" y2="196.59626532941462" stroke="#333" stroke-width="1"></line><line x1="602.8339917989675" y1="185.36578924331198" x2="606.5901768322817" y2="181.39108163670664" stroke="#333" stroke-width="1"></line><line x1="583.3555431653597" y1="168.50439000536986" x2="590.1464892085212" y2="159.93047852408725" stroke="#333" stroke-width="1"></line><line x1="562.4816481351594" y1="153.40481214035773" x2="565.4905675450698" y2="148.8382345874014" stroke="#333" stroke-width="1"></line><circle cx="400" cy="400" r="295.3125" fill="none" stroke="#333" stroke-width="1"></circle></g><g id="chart-astrology-radix-planets"><line x1="691.0372421310084" y1="450.0679173625864" x2="685.6476635730268" y2="449.1407337077237" stroke="#333" stroke-width="1"></line><line x1="685.6476635730268" y1="449.1407337077237" x2="671.5146465373737" y2="451.6036562724487" stroke="#333" stroke-width="0.5"></line><g transform="translate(0,0) scale(1)" id="chart-astrology-radix-planets-Mercury"><path d="m660, 457 4.26011,0 m -2.13005,-2.98207 0,5.11213 m 4.70312,-9.7983 a 4.70315,4.70315 0 0 1 -4.70315,4.70314 4.70315,4.70315 0 0 1 -4.70314,-4.70314 4.70315,4.70315 0 0 1 4.70314,-4.70315 4.70315,4.70315 0 0 1 4.70315,4.70315 z" stroke="#000" stroke-width="1.8" fill="none"></path><path d="m666, 441 a 3.9717855,3.9717855 0 0 1 -3.95541,3.59054 3.9717855,3.9717855 0 0 1 -3.95185,-3.59445" stroke="#000" stroke-width="1.8" fill="none"></path></g><text x="668.8333645020355" y="439.7364954846622" font-size="8" fill="#000" font-family="serif" dominant-baseline="central" transform="translate(0,0) scale(1)">19</text><text x="668.8333645020355" y="446.8793526275194" font-size="8" fill="#000" font-family="serif" dominant-baseline="central" transform="translate(0,0) scale(1)"></text><text x="668.8333645020355" y="454.0222097703765" font-size="8" fill="#000" font-family="serif" dominant-baseline="central" transform="translate(0,0) scale(1)"></text><line x1="692.9303402313582" y1="437.4337872541739" x2="687.5057043011478" y2="436.74056897168924" stroke="#333" stroke-width="1"></line><line x1="687.5057043011478" y1="436.74056897168924" x2="674.7152621409818" y2="430.2434351853692" stroke="#333" stroke-width="0.5"></line><g transform="translate(0,0) scale(1)" id="chart-astrology-radix-planets-Venus"><path d="m667, 436 -4.937669,0.03973 m 2.448972,2.364607 0,-5.79014 c -3.109546,-0.0085 -5.624617,-2.534212 -5.620187,-5.64208 0.0044,-3.107706 2.526514,-5.621689 5.635582,-5.621689 3.109068,0 5.631152,2.513983 5.635582,5.621689 0.0044,3.107868 -2.510641,5.633586 -5.620187,5.64208" stroke="#000" stroke-width="1.8" fill="none"></path></g><text x="671.9181731186293" y="419.14914535505284" font-size="8" fill="#000" font-family="serif" dominant-baseline="central" transform="translate(0,0) scale(1)">21</text><text x="671.9181731186293" y="426.29200249791" font-size="8" fill="#000" font-family="serif" dominant-baseline="central" transform="translate(0,0) scale(1)"></text><text x="671.9181731186293" y="433.4348596407671" font-size="8" fill="#000" font-family="serif" dominant-baseline="central" transform="translate(0,0) scale(1)"></text><line x1="226.38506003491034" y1="161.11231660638444" x2="229.60015151574532" y2="165.5361625951551" stroke="#333" stroke-width="1"></line><g transform="translate(0,0) scale(1)" id="chart-astrology-radix-planets-Uranus"><path d="m238, 178  0,10.23824 m 10.23633,-10.32764 0,10.23824 m -10.26606,-4.6394 10.23085,0 m -5.06415,-5.51532 0,11.94985" stroke="#000" stroke-width="1.8" fill="none"></path><path d="m245, 192.5 a 1.8384377,1.8384377 0 0 1 -1.83844,1.83843 1.8384377,1.8384377 0 0 1 -1.83842,-1.83843 1.8384377,1.8384377 0 0 1 1.83842,-1.83844 1.8384377,1.8384377 0 0 1 1.83844,1.83844 z" stroke="#000" stroke-width="1.8" fill="none"></path></g><text x="250.54034409921434" y="174.52078166696518" font-size="8" fill="#000" font-family="serif" dominant-baseline="central" transform="translate(0,0) scale(1)">4</text><text x="250.54034409921434" y="181.66363880982232" font-size="8" fill="#000" font-family="serif" dominant-baseline="central" transform="translate(0,0) scale(1)"></text><text x="250.54034409921434" y="188.80649595267946" font-size="8" fill="#000" font-family="serif" dominant-baseline="central" transform="translate(0,0) scale(1)"></text><line x1="143.61950120237208" y1="253.44450712262775" x2="148.36728821714297" y2="256.15849773146795" stroke="#333" stroke-width="1"></line><g transform="translate(0,0) scale(1)" id="chart-astrology-radix-planets-Neptune"><path d="m172, 263 1.77059,-2.36312 2.31872,1.8045 m -14.44264,-0.20006 2.34113,-1.77418 1.74085,2.38595 m -1.80013,-1.77265 c -1.23776,8.40975 0.82518,9.67121 4.95106,9.67121 4.12589,0 6.18883,-1.26146 4.95107,-9.67121 m -7.05334,3.17005 2.03997,-2.12559 2.08565,2.07903 m -5.32406,9.91162 6.60142,0 m -3.30071,-12.19414 0,15.55803" stroke="#000" stroke-width="1.8" fill="none"></path></g><text x="175.88493420624545" y="257.80539457283373" font-size="8" fill="#000" font-family="serif" dominant-baseline="central" transform="translate(0,0) scale(1)">29</text><text x="175.88493420624545" y="264.9482517156909" font-size="8" fill="#000" font-family="serif" dominant-baseline="central" transform="translate(0,0) scale(1)"></text><text x="175.88493420624545" y="272.091108858548" font-size="8" fill="#000" font-family="serif" dominant-baseline="central" transform="translate(0,0) scale(1)">f</text><line x1="114.25875629695446" y1="325.42510943161403" x2="119.55026080997385" y2="326.80612592362115" stroke="#333" stroke-width="1"></line><g transform="translate(0,0) scale(1)" id="chart-astrology-radix-planets-Mars"><path d="m144, 331 c -5.247438,-4.150623 -11.6993,3.205518 -7.018807,7.886007 4.680494,4.680488 12.036628,-1.771382 7.885999,-7.018816 z m 0,0 0.433597,0.433595 3.996566,-4.217419 m -3.239802,-0.05521 3.295015,0 0.110427,3.681507" stroke="#000" stroke-width="1.8" fill="none"></path></g><text x="149.40123160584548" y="322.7326595550347" font-size="8" fill="#000" font-family="serif" dominant-baseline="central" transform="translate(0,0) scale(1)">14</text><text x="149.40123160584548" y="329.87551669789184" font-size="8" fill="#000" font-family="serif" dominant-baseline="central" transform="translate(0,0) scale(1)"></text><text x="149.40123160584548" y="337.01837384074895" font-size="8" fill="#000" font-family="serif" dominant-baseline="central" transform="translate(0,0) scale(1)">f</text><line x1="481.175187417025" y1="683.9367211264878" x2="479.6719432055986" y2="678.6786336982195" stroke="#333" stroke-width="1"></line><g transform="translate(0,0) scale(1)" id="chart-astrology-radix-planets-Saturn"><path d="m478, 666 c -0.52222,0.52221 -1.04445,1.04444 -1.56666,1.04444 -0.52222,0 -1.56667,-0.52223 -1.56667,-1.56667 0,-1.04443 0.52223,-2.08887 1.56667,-3.13332 1.04444,-1.04443 2.08888,-3.13331 2.08888,-5.22219 0,-2.08888 -1.04444,-4.17776 -3.13332,-4.17776 -1.97566,0 -3.65555,1.04444 -4.69998,3.13333 m -2.55515,-5.87499 6.26664,0 m -3.71149,-2.48054 0,15.14438" stroke="#000" stroke-width="1.8" fill="none"></path></g><text x="480.36373518970595" y="646.1139270774795" font-size="8" fill="#000" font-family="serif" dominant-baseline="central" transform="translate(0,0) scale(1)">14</text><text x="480.36373518970595" y="653.2567842203366" font-size="8" fill="#000" font-family="serif" dominant-baseline="central" transform="translate(0,0) scale(1)"></text><text x="480.36373518970595" y="660.3996413631938" font-size="8" fill="#000" font-family="serif" dominant-baseline="central" transform="translate(0,0) scale(1)"></text><line x1="694.9348315185497" y1="385.0695675422748" x2="689.4730753793174" y2="385.3460570322327" stroke="#333" stroke-width="1"></line><g transform="translate(0,0) scale(1)" id="chart-astrology-radix-planets-Sun"><path d="m665, 379 -2.18182,0.727268 -2.181819,1.454543 -1.454552,2.18182 -0.727268,2.181819 0,2.181819 0.727268,2.181819 1.454552,2.18182 2.181819,1.454544 2.18182,0.727276 2.18181,0 2.18182,-0.727276 2.181819,-1.454544 1.454552,-2.18182 0.727268,-2.181819 0,-2.181819 -0.727268,-2.181819 -1.454552,-2.18182 -2.181819,-1.454543 -2.18182,-0.727268 -2.18181,0 m 0.727267,6.54545 -0.727267,0.727276 0,0.727275 0.727267,0.727268 0.727276,0 0.727267,-0.727268 0,-0.727275 -0.727267,-0.727276 -0.727276,0 m 0,0.727276 0,0.727275 0.727276,0 0,-0.727275 -0.727276,0" stroke="#000" stroke-width="1.8" fill="none"></path></g><text x="673.1771961760971" y="376.5325919291376" font-size="8" fill="#000" font-family="serif" dominant-baseline="central" transform="translate(0,0) scale(1)">1</text><text x="673.1771961760971" y="383.67544907199476" font-size="8" fill="#000" font-family="serif" dominant-baseline="central" transform="translate(0,0) scale(1)"></text><text x="673.1771961760971" y="390.8183062148519" font-size="8" fill="#000" font-family="serif" dominant-baseline="central" transform="translate(0,0) scale(1)">d</text><line x1="647.3761415650406" y1="238.70983526376142" x2="642.7951019064287" y2="241.69669016628436" stroke="#333" stroke-width="1"></line><g transform="translate(0,0) scale(1)" id="chart-astrology-radix-planets-Jupiter"><path d="m618, 253 c -0.43473,0 -1.30422,-0.40572 -1.30422,-2.02857 0,-1.62285 1.73897,-3.2457 3.47792,-3.2457 1.73897,0 3.47792,1.21715 3.47792,4.05713 0,2.83999 -2.1737,7.30283 -6.52108,7.30283 m 12.17269,0 -12.60745,0 m 9.99902,-11.76567 0,15.82279" stroke="#000" stroke-width="1.8" fill="none"></path></g><text x="630.2787545714715" y="244.5145646336828" font-size="8" fill="#000" font-family="serif" dominant-baseline="central" transform="translate(0,0) scale(1)">1</text><text x="630.2787545714715" y="251.65742177653993" font-size="8" fill="#000" font-family="serif" dominant-baseline="central" transform="translate(0,0) scale(1)"></text><text x="630.2787545714715" y="258.8002789193971" font-size="8" fill="#000" font-family="serif" dominant-baseline="central" transform="translate(0,0) scale(1)">r</text><line x1="612.9799329424043" y1="195.42966779100394" x2="609.0358601101375" y2="199.21800727635573" stroke="#333" stroke-width="1"></line><g transform="translate(0,0) scale(1)" id="chart-astrology-radix-planets-Chiron"><path d="m595, 220 a 3.8764725,3.0675249 0 0 1 -3.876473,3.067525 3.8764725,3.0675249 0 0 1 -3.876472,-3.067525 3.8764725,3.0675249 0 0 1 3.876472,-3.067525 3.8764725,3.0675249 0 0 1 3.876473,3.067525 z" stroke="#000" stroke-width="1.8" fill="none"></path><path d="m595, 207   -3.942997,4.243844 4.110849,3.656151 m -4.867569,-9.009468 0,11.727251" stroke="#000" stroke-width="1.8" fill="none"></path></g><text x="599.2530104128099" y="205.47539558206535" font-size="8" fill="#000" font-family="serif" dominant-baseline="central" transform="translate(0,0) scale(1)">12</text><text x="599.2530104128099" y="212.61825272492248" font-size="8" fill="#000" font-family="serif" dominant-baseline="central" transform="translate(0,0) scale(1)"></text><text x="599.2530104128099" y="219.76110986777962" font-size="8" fill="#000" font-family="serif" dominant-baseline="central" transform="translate(0,0) scale(1)"></text><line x1="596.2152108694459" y1="179.298700321659" x2="592.5815958533451" y2="183.38576142681347" stroke="#333" stroke-width="1"></line><g transform="translate(0,0) scale(1)" id="chart-astrology-radix-planets-Pluto"><path d="m582, 196 a 5.7676856,5.7676856 0 0 1 -2.88385,4.99496 5.7676856,5.7676856 0 0 1 -5.76768,0 5.7676856,5.7676856 0 0 1 -2.88385,-4.99496 m 5.76771,13.93858 0,-8.17088 m -3.84512,4.32576 7.69024,0" stroke="#000" stroke-width="1.8" fill="none"></path><path d="m579.7, 196 a 3.3644834,3.3644834 0 0 1 -3.36448,3.36449 3.3644834,3.3644834 0 0 1 -3.36448,-3.36449 3.3644834,3.3644834 0 0 1 3.36448,-3.36448 3.3644834,3.3644834 0 0 1 3.36448,3.36448 z" stroke="#000" stroke-width="1.8" fill="none"></path></g><text x="584.1310536985351" y="190.92509222664776" font-size="8" fill="#000" font-family="serif" dominant-baseline="central" transform="translate(0,0) scale(1)">17</text><text x="584.1310536985351" y="198.0679493695049" font-size="8" fill="#000" font-family="serif" dominant-baseline="central" transform="translate(0,0) scale(1)"></text><text x="584.1310536985351" y="205.21080651236204" font-size="8" fill="#000" font-family="serif" dominant-baseline="central" transform="translate(0,0) scale(1)"></text><line x1="558.2881335686832" y1="150.692279647034" x2="555.3568718359298" y2="155.30908928320005" stroke="#333" stroke-width="1"></line><g transform="translate(0,0) scale(1)" id="chart-astrology-radix-planets-Moon"><path d="m541, 168 a 7.4969283,7.4969283 0 0 1 0,14.327462 7.4969283,7.4969283 0 1 0 0,-14.327462 z" stroke="#000" stroke-width="1.8" fill="none"></path></g><text x="549.9204286285138" y="165.12179806468973" font-size="8" fill="#000" font-family="serif" dominant-baseline="central" transform="translate(0,0) scale(1)">26</text><text x="549.9204286285138" y="172.26465520754687" font-size="8" fill="#000" font-family="serif" dominant-baseline="central" transform="translate(0,0) scale(1)"></text><text x="549.9204286285138" y="179.407512350404" font-size="8" fill="#000" font-family="serif" dominant-baseline="central" transform="translate(0,0) scale(1)"></text><line x1="533.9694046754742" y1="136.82387785524872" x2="531.4884897740765" y2="141.69750974681818" stroke="#333" stroke-width="1"></line><circle cx="520.8418206829357" cy="162.6123528929249" r="8" fill="#ff0000" stroke="#ffff00" stroke-width="1" id="chart-astrology-radix-planets-Sirius"></circle><text x="527.9846778257928" y="152.6123528929249" font-size="8" fill="#000" font-family="serif" dominant-baseline="central" transform="translate(0,0) scale(1)">1</text><text x="527.9846778257928" y="159.75521003578203" font-size="8" fill="#000" font-family="serif" dominant-baseline="central" transform="translate(0,0) scale(1)"></text><text x="527.9846778257928" y="166.89806717863917" font-size="8" fill="#000" font-family="serif" dominant-baseline="central" transform="translate(0,0) scale(1)"></text></g><g id="chart-astrology-radix-cusps"><line x1="225" y1="400" x2="104.6875" y2="399.99999999999994" stroke="#333" stroke-width="1.6"></line><g id="chart-astrology-radix-cusps-1" transform="translate(0,0) scale(1)"><path d="m218, 433 -2.5128753,7.7578884 1.00515009,0 m 3.01545031,-9.5832737 -1.0051501,1.8253853 -2.51287527,7.7578884 m 3.51802537,-9.5832737 -3.01545031,9.5832737 m 3.01545031,-9.5832737 -1.5077251,1.3690388 -1.50772521,0.9126929 -1.00515009,0.4563463 m 2.5128753,-0.9126927 -1.00515016,0.4563464 -1.50772514,0.4563463" stroke="#000" stroke-width="1" fill="none"></path></g><line x1="238.02116124468284" y1="466.24089217001057" x2="126.6607096004023" y2="511.78150553689284" stroke="#333" stroke-width="1"></line><g id="chart-astrology-radix-cusps-2" transform="translate(0,0) scale(1)"><path d="m247, 504 0,-0.4545454 0.4545454,0 0,0.9090909 -0.9090909,0 0,-0.9090909 0.4545455,-0.9090909 0.4545454,-0.4545455 1.36363637,-0.4545454 1.36363633,0 1.3636364,0.4545454 0.4545455,0.9090909 0,0.9090909 -0.4545455,0.909091 -0.9090909,0.9090909 -4.5454546,2.72727269 -0.9090909,0.90909091 -0.9090909,1.8181818 m 6.8181818,-9.0909091 0.4545455,0.9090909 0,0.9090909 -0.4545455,0.909091 -0.9090909,0.9090909 -1.36363633,0.9090909 m 1.36363633,-5 0.4545455,0.4545454 0.4545454,0.9090909 0,0.9090909 -0.4545454,0.909091 -0.9090909,0.9090909 -3.6363637,2.72727269 m -1.3636363,1.81818181 0.4545454,-0.4545454 0.9090909,0 2.27272732,0.4545454 2.27272728,0 0.4545454,-0.4545454 m -5,0 2.27272732,0.9090909 2.27272728,0 m -4.5454546,-0.9090909 2.27272732,1.3636363 1.36363638,0 0.9090909,-0.4545454 0.4545454,-0.9090909 0,-0.4545455" stroke="#000" stroke-width="1" fill="none"></path></g><line x1="283.5641650827895" y1="530.6433938135874" x2="203.51452857720722" y2="620.4607270604288" stroke="#333" stroke-width="1"></line><g id="chart-astrology-radix-cusps-3" transform="translate(0,0) scale(1)"><path d="m317, 563 0,-0.4545454 0.45454549,0 0,0.9090909 -0.90909089,0 0,-0.9090909 0.4545454,-0.9090909 0.45454549,-0.4545455 1.36363636,-0.4545454 1.36363635,0 1.3636364,0.4545454 0.4545454,0.9090909 0,0.9090909 -0.4545454,0.909091 -0.4545455,0.4545454 -0.9090909,0.4545455 -1.36363635,0.4545454 m 2.27272725,-4.0909091 0.4545455,0.9090909 0,0.9090909 -0.4545455,0.909091 -0.4545454,0.4545454 m -0.4545455,-3.6363636 0.4545455,0.4545454 0.4545454,0.9090909 0,0.9090909 -0.4545454,0.909091 -0.9090909,0.9090909 -0.90909095,0.4545454 m -0.9090909,0 0.9090909,0 1.36363635,0.4545455 0.4545455,0.45454542 0.4545454,0.90909091 0,1.36363637 -0.4545454,0.9090909 -0.9090909,0.4545455 -1.3636364,0.4545454 -1.3636364,0 -1.3636363,-0.4545454 -0.4545455,-0.4545455 -0.4545454,-0.9090909 0,-0.90909091 0.9090909,0 0,0.90909091 -0.4545455,0 0,-0.45454546 m 5,-1.81818182 0.4545455,0.90909091 0,1.36363637 -0.4545455,0.9090909 m -1.36363635,-4.0909091 0.90909095,0.4545455 0.4545454,0.90909088 0,1.81818182 -0.4545454,0.9090909 -0.45454549,0.4545455 -0.90909091,0.4545454" stroke="#000" stroke-width="1" fill="none"></path></g><line x1="368.4890633223168" y1="572.1396551341237" x2="346.8252943564096" y2="690.4856680388338" stroke="#333" stroke-width="1.6"></line><g id="chart-astrology-radix-cusps-4" transform="translate(0,0) scale(1)"><path d="m424, 580 -2.28678383,7.7750651 0.91471356,0 m 2.74414057,-9.6044922 -0.9147135,1.8294271 -2.28678386,7.7750651 m 3.20149736,-9.6044922 -2.74414057,9.6044922 m 2.74414057,-9.6044922 -7.3177083,6.8603516 7.3177083,0" stroke="#000" stroke-width="1" fill="none"></path></g><line x1="473.2410440687628" y1="558.9363063107909" x2="523.5942618660373" y2="668.2050168994597" stroke="#333" stroke-width="1"></line><g id="chart-astrology-radix-cusps-5" transform="translate(0,0) scale(1)"><path d="m522, 533 -2.27272725,4.5454545 m 2.27272725,-4.5454545 4.54545455,0 m -4.54545455,0.4545454 3.63636365,0 m -4.0909091,0.4545455 2.2727273,0 1.8181818,-0.4545455 0.9090909,-0.4545454 m -6.8181818,4.5454545 0.4545454,-0.4545454 1.3636364,-0.4545455 1.36363636,0 1.36363634,0.4545455 0.4545455,0.4545454 0.4545454,0.90909092 0,1.36363638 -0.4545454,1.3636364 -0.9090909,0.9090909 -1.81818185,0.4545454 -1.36363635,0 -0.9090909,-0.4545454 -0.4545455,-0.4545455 -0.4545454,-0.9090909 0,-0.9090909 0.9090909,0 0,0.9090909 -0.4545455,0 0,-0.45454545 m 5,-2.72727275 0.4545455,0.90909092 0,1.36363638 -0.4545455,1.3636364 -0.9090909,0.9090909 m -0.45454544,-5.4545455 0.90909094,0.4545455 0.4545454,0.9090909 0,1.8181818 -0.4545454,1.3636364 -0.90909094,0.9090909 -0.90909091,0.4545454" stroke="#000" stroke-width="1" fill="none"></path></g><line x1="550.2181090413081" y1="489.7748278530995" x2="653.4930590072074" y2="551.4950220021054" stroke="#333" stroke-width="1"></line><g id="chart-astrology-radix-cusps-6" transform="translate(0,0) scale(1)"><path d="m581, 446 0,-0.4545455 -0.4545455,0 0,0.9090909 0.9090909,0 0,-0.9090909 -0.4545454,-0.9090909 -0.909091,-0.4545454 -1.3636363,0 -1.36363638,0.4545454 -0.90909092,0.9090909 -0.9090909,1.3636364 -0.4545455,1.3636364 -0.4545454,1.81818178 0,1.36363636 0.4545454,1.36363636 0.4545455,0.4545455 0.9090909,0.4545454 1.36363637,0 1.36363633,-0.4545454 0.9090909,-0.9090909 0.4545455,-0.90909096 0,-1.36363636 -0.4545455,-0.90909088 -0.4545454,-0.4545455 -0.9090909,-0.4545454 -1.36363638,0 -0.90909092,0.4545454 -0.4545454,0.4545455 -0.4545455,0.90909088 m 1.36363636,-4.54545458 -0.90909086,1.3636364 -0.4545455,1.3636364 -0.4545455,1.81818178 0,1.81818182 0.4545455,0.9090909 m 4.0909091,-0.4545454 0.4545454,-0.90909096 0,-1.36363636 -0.4545454,-0.90909088 m -0.9090909,-5 -0.90909093,0.4545454 -0.90909091,1.3636364 -0.45454546,0.9090909 -0.4545454,1.3636364 -0.4545455,1.81818178 0,2.27272732 0.4545455,0.9090909 0.4545454,0.4545454 m 1.36363637,0 0.90909093,-0.4545454 0.4545454,-0.4545455 0.4545455,-1.36363636 0,-1.81818182 -0.4545455,-0.90909092 -0.4545454,-0.4545454" stroke="#000" stroke-width="1" fill="none"></path></g><line x1="575" y1="400.00000000000006" x2="656.375" y2="400.00000000000006" stroke="#333" stroke-width="1.6"></line><line x1="686.375" y1="400.00000000000006" x2="695.3125" y2="400.00000000000006" stroke="#333" stroke-width="1.6"></line><g id="chart-astrology-radix-cusps-7" transform="translate(0,0) scale(1)"><path d="m578, 360 -0.9090909,2.7272727 m 6.8181818,-2.7272727 -0.4545454,1.3636363 -0.909091,1.3636364 -1.8181818,2.2727273 -0.90909088,1.36363633 -0.45454546,1.36363637 -0.45454545,1.8181818 m 0.90909091,-3.63636362 -0.90909091,1.81818182 -0.45454546,1.8181818 m 4.09090905,-6.8181818 -2.72727268,2.72727272 -0.90909091,1.36363637 -0.45454546,0.90909091 -0.45454545,1.8181818 0.90909091,0 m -1.36363641,-8.1818182 1.36363641,-1.3636363 0.90909091,0 2.27272728,1.3636363 m -3.63636365,-0.9090909 1.36363637,0 2.27272728,0.9090909 m -4.5454546,0 0.90909095,-0.4545454 1.36363637,0 2.27272728,0.4545454 0.9090909,0 0.4545455,-0.4545454 0.4545454,-0.9090909" stroke="#000" stroke-width="1" fill="none"></path></g><line x1="561.9788387553172" y1="333.7591078299893" x2="637.2989987765395" y2="302.95709297093435" stroke="#333" stroke-width="1"></line><line x1="665.0667997060225" y1="291.60151145607534" x2="673.3392903995975" y2="288.21849446310694" stroke="#333" stroke-width="1"></line><g id="chart-astrology-radix-cusps-8" transform="translate(0,0) scale(1)"><path d="m550, 288 -1.3631244,0.4543748 -0.4543748,0.4543748 -0.4543748,0.9087496 0,1.3631244 0.4543748,0.9087496 0.9087496,0.4543748 1.3631244,0 1.3631244,-0.4543748 0.9087496,-0.4543748 0.4543748,-0.9087496 0,-1.3631244 -0.4543748,-0.9087496 -0.9087496,-0.4543748 -1.8174992,0 m 0.9087496,0 -2.271874,0.4543748 m 0,0.4543748 -0.4543748,0.9087496 0,1.8174992 0.4543748,0.4543748 m -0.4543748,0 1.3631244,0.4543748 m 0.4543748,0 1.8174992,-0.4543748 m 0.4543748,-0.4543748 0.4543748,-0.9087496 0,-1.3631244 -0.4543748,-0.9087496 m 0.4543748,0 -1.8174992,-0.4543748 m -0.9087496,0 -0.9087496,0.9087496 -0.4543748,0.9087496 0,1.8174992 0.4543748,0.9087496 m 1.3631244,0 0.9087496,-0.4543748 0.4543748,-0.4543748 0.4543748,-0.9087496 0,-1.8174992 -0.4543748,-0.9087496 m -2.7262488,4.543748 -1.8174992,0.4543748 -0.9087496,0.90874964 -0.4543748,0.9087496 0,1.36312436 0.4543748,0.9087496 1.3631244,0.4543748 1.8174992,0 1.8174992,-0.4543748 0.4543748,-0.4543748 0.4543748,-0.9087496 0,-1.36312436 -0.4543748,-0.9087496 -0.4543748,-0.45437484 -0.9087496,-0.4543748 m -0.9087496,0 -2.271874,0.4543748 m 0.4543748,0 -0.9087496,0.90874964 -0.4543748,0.9087496 0,1.36312436 0.4543748,0.9087496 m -0.4543748,0 2.271874,0.4543748 2.7262488,-0.4543748 m 0,-0.4543748 0.4543748,-0.9087496 0,-1.36312436 -0.4543748,-0.9087496 m 0,-0.45437484 -1.3631244,-0.4543748 m -0.9087496,0 -0.9087496,0.4543748 -0.9087496,0.90874964 -0.4543748,0.9087496 0,1.36312436 0.4543748,0.9087496 0.4543748,0.4543748 m 1.8174992,0 0.9087496,-0.4543748 0.4543748,-0.4543748 0.4543748,-0.9087496 0,-1.81749916 -0.4543748,-0.90874964 -0.4543748,-0.4543748" stroke="#000" stroke-width="1" fill="none"></path></g><line x1="516.4358349172106" y1="269.3566061864126" x2="570.5784981537136" y2="208.6074280630945" stroke="#333" stroke-width="1"></line><line x1="590.5389269966639" y1="186.21141769505093" x2="596.4854714227929" y2="179.53927293957128" stroke="#333" stroke-width="1"></line><g id="chart-astrology-radix-cusps-9" transform="translate(0,0) scale(1)"><path d="m482, 232 -0.4545455,0.9090909 -0.4545454,0.4545455 -0.9090909,0.45454542 -1.36363638,0 -0.90909092,-0.45454542 -0.4545454,-0.4545455 -0.4545455,-0.9090909 0,-1.3636364 0.4545455,-0.9090909 0.90909086,-0.9090909 1.36363637,-0.4545454 1.36363637,0 0.9090909,0.4545454 0.4545455,0.4545455 0.4545454,1.3636363 0,1.3636364 -0.4545454,1.81818182 -0.4545455,1.36363637 -0.9090909,1.36363641 -0.9090909,0.9090909 -1.36363638,0.4545454 -1.36363632,0 -0.909091,-0.4545454 -0.4545454,-0.9090909 0,-0.90909096 0.9090909,0 0,0.90909096 -0.4545455,0 0,-0.4545455 m 1.3636364,-3.1818182 -0.4545454,-0.9090909 0,-1.3636364 0.4545454,-0.9090909 m 4.0909091,-0.4545454 0.4545455,0.9090909 0,1.8181818 -0.4545455,1.81818182 -0.4545455,1.36363637 -0.9090909,1.36363641 m -1.81818178,-2.72727278 -0.45454546,-0.45454542 -0.45454546,-0.9090909 0,-1.8181819 0.45454546,-1.3636363 0.45454546,-0.4545455 0.90909091,-0.4545454 m 1.36363637,0 0.4545454,0.4545454 0.4545455,0.9090909 0,2.2727273 -0.4545455,1.81818182 -0.4545454,1.36363637 -0.4545455,0.90909091 -0.90909087,1.3636364 -0.90909091,0.4545454" stroke="#000" stroke-width="1" fill="none"></path></g><line x1="431.5109366776833" y1="227.8603448658763" x2="453.17470564359047" y2="109.51433196116625" stroke="#333" stroke-width="1.6"></line><g id="chart-astrology-radix-cusps-10" transform="translate(0,0) scale(1)"><path d="m374, 213 -2.28795747,7.7790553 0.91518297,0 m 2.7455489,-9.6094213 -0.9151829,1.830366 -2.28795748,7.7790553 m 3.20314038,-9.6094213 -2.7455489,9.6094213 m 2.7455489,-9.6094213 -1.3727744,1.3727745 -1.3727745,0.915183 -0.91518297,0.4575915 m 2.28795747,-0.915183 -0.91518301,0.4575915 -1.37277446,0.4575915" stroke="#000" stroke-width="1" fill="none"></path><path d="m380.5, 211.5 -1.36363638,0.4545454 -0.90909092,0.9090909 -0.9090909,1.3636364 -0.4545455,1.3636364 -0.4545454,1.81818178 0,1.36363636 0.4545454,1.36363636 0.4545455,0.4545455 0.9090909,0.4545454 0.90909092,0 1.36363638,-0.4545454 0.9090909,-0.9090909 0.9090909,-1.36363641 0.4545455,-1.36363637 0.4545454,-1.81818182 0,-1.3636364 -0.4545454,-1.3636363 -0.4545455,-0.4545455 -0.9090909,-0.4545454 -0.9090909,0 m -1.36363638,0.9090909 -0.90909092,0.9090909 -0.4545454,0.9090909 -0.4545455,1.3636364 -0.4545455,1.81818178 0,1.81818182 0.4545455,0.9090909 m 3.1818182,0 0.9090909,-0.9090909 0.4545454,-0.90909091 0.4545455,-1.36363637 0.4545455,-1.81818182 0,-1.8181818 -0.4545455,-0.9090909 m -1.8181818,-0.9090909 -0.90909093,0.4545454 -0.90909091,1.3636364 -0.45454546,0.9090909 -0.4545454,1.3636364 -0.4545455,1.81818178 0,2.27272732 0.4545455,0.9090909 0.4545454,0.4545454 m 0.90909092,0 0.90909091,-0.4545454 0.90909087,-1.3636364 0.4545455,-0.90909091 0.4545454,-1.36363637 0.4545455,-1.81818182 0,-2.2727273 -0.4545455,-0.9090909 -0.4545454,-0.4545454" stroke="#000" stroke-width="1" fill="none"></path></g><line x1="326.75895593123715" y1="241.06369368920915" x2="276.4057381339627" y2="131.79498310054043" stroke="#333" stroke-width="1"></line><g id="chart-astrology-radix-cusps-11" transform="translate(0,0) scale(1)"><path d="m273, 259 -2.28795747,7.7790553 0.91518297,0 m 2.7455489,-9.6094213 -0.9151829,1.830366 -2.28795748,7.7790553 m 3.20314038,-9.6094213 -2.7455489,9.6094213 m 2.7455489,-9.6094213 -1.3727744,1.3727745 -1.3727745,0.915183 -0.91518297,0.4575915 m 2.28795747,-0.915183 -0.91518301,0.4575915 -1.37277446,0.4575915" stroke="#000" stroke-width="1" fill="none"></path><path d="m279, 259 -2.28795747,7.7790553 0.91518297,0 m 2.7455489,-9.6094213 -0.9151829,1.830366 -2.28795748,7.7790553 m 3.20314038,-9.6094213 -2.7455489,9.6094213 m 2.7455489,-9.6094213 -1.3727744,1.3727745 -1.3727745,0.915183 -0.91518297,0.4575915 m 2.28795747,-0.915183 -0.91518301,0.4575915 -1.37277446,0.4575915" stroke="#000" stroke-width="1" fill="none"></path></g><line x1="249.78189095869183" y1="310.2251721469005" x2="179.93047025448357" y2="268.4798771952092" stroke="#333" stroke-width="1"></line><line x1="154.17879441883073" y1="253.08990670610643" x2="146.5069409927925" y2="248.50497799789457" stroke="#333" stroke-width="1"></line><g id="chart-astrology-radix-cusps-12" transform="translate(0,0) scale(1)"><path d="m219, 348 -2.28795747,7.7790553 0.91518297,0 m 2.7455489,-9.6094213 -0.9151829,1.830366 -2.28795748,7.7790553 m 3.20314038,-9.6094213 -2.7455489,9.6094213 m 2.7455489,-9.6094213 -1.3727744,1.3727745 -1.3727745,0.915183 -0.91518297,0.4575915 m 2.28795747,-0.915183 -0.91518301,0.4575915 -1.37277446,0.4575915" stroke="#000" stroke-width="1" fill="none"></path><path d="m223, 349 0,-0.4545454 0.4545454,0 0,0.9090909 -0.9090909,0 0,-0.9090909 0.4545455,-0.9090909 0.4545454,-0.4545455 1.36363637,-0.4545454 1.36363633,0 1.3636364,0.4545454 0.4545455,0.9090909 0,0.9090909 -0.4545455,0.909091 -0.9090909,0.9090909 -4.5454546,2.72727269 -0.9090909,0.90909091 -0.9090909,1.8181818 m 6.8181818,-9.0909091 0.4545455,0.9090909 0,0.9090909 -0.4545455,0.909091 -0.9090909,0.9090909 -1.36363633,0.9090909 m 1.36363633,-5 0.4545455,0.4545454 0.4545454,0.9090909 0,0.9090909 -0.4545454,0.909091 -0.9090909,0.9090909 -3.6363637,2.72727269 m -1.3636363,1.81818181 0.4545454,-0.4545454 0.9090909,0 2.27272732,0.4545454 2.27272728,0 0.4545454,-0.4545454 m -5,0 2.27272732,0.9090909 2.27272728,0 m -4.5454546,-0.9090909 2.27272732,1.3636363 1.36363638,0 0.9090909,-0.4545454 0.4545454,-0.9090909 0,-0.4545455" stroke="#000" stroke-width="1" fill="none"></path></g></g><g id="chart-astrology-radix-axis"><line x1="50" y1="399.99999999999994" x2="39.0625" y2="399.99999999999994" stroke="#333" stroke-width="1.6"></line><g transform="translate(0,0) scale(1)"><path d="m 31, 398 -0.563078,-1.1261527 -1.689228,-0.5630765 -1.689229,0 -1.68923,0.5630765 -0.563076,1.1261527 0.563076,1.12615272 1.126154,0.56307636 2.815381,0.56307635 1.126152,0.56307647 0.563078,1.1261526 0,0.5630763 -0.563078,1.1261528 -1.689228,0.5630764 -1.689229,0 -1.68923,-0.5630764 -0.563076,-1.1261528 m -6.756916,-10.135374 -4.504611,11.8246032 m 4.504611,-11.8246032 4.504611,11.8246032 m -7.3199925,-3.94153457 5.6307625,0" stroke="#333" stroke-width="1.6" fill="none"></path></g><line x1="336.9781266446336" y1="744.2793102682474" x2="335.0086931022784" y2="755.0380387141302" stroke="#333" stroke-width="1.6"></line><g transform="translate(0,0) scale(1)"><path d="m 340, 764 -1.208852,-1.2088514 -1.208851,-0.6044258 -1.813278,0 -1.208852,0.6044258 -1.20885,1.2088514 -0.604426,1.81327715 0,1.20885135 0.604426,1.8132772 1.20885,1.2088513 1.208852,0.6044259 1.813278,0 1.208851,-0.6044259 1.208852,-1.2088513 m -11.4840902,-10.8796629 0,12.6929401" stroke="#333" stroke-width="1.6" fill="none"></path></g><line x1="750" y1="400.0000000000001" x2="760.9375" y2="400.0000000000001" stroke="#333" stroke-width="1.6"></line><g transform="translate(0,0) scale(1)"><path d="m 785, 399 -0.5625,-1.125 -1.6875,-0.5625 -1.6875,0 -1.6875,0.5625 -0.5625,1.125 0.5625,1.125 1.125,0.5625 2.8125,0.5625 1.125,0.5625 0.5625,1.125 0,0.5625 -0.5625,1.125 -1.6875,0.5625 -1.6875,0 -1.6875,-0.5625 -0.5625,-1.125 m -11.25,-10.125 0,11.8125 m 0,-11.8125 3.9375,0 1.6875,0.5625 1.125,1.125 0.5625,1.125 0.5625,1.6875 0,2.8125 -0.5625,1.6875 -0.5625,1.125 -1.125,1.125 -1.6875,0.5625 -3.9375,0" stroke="#333" stroke-width="1.6" fill="none"></path></g><line x1="463.0218733553665" y1="55.7206897317526" x2="464.9913068977217" y2="44.961961285869904" stroke="#333" stroke-width="1.6"></line><g transform="translate(0,0) scale(1)"><path d="m 473, 29 -1.004085,-1.0040845 -1.004084,-0.5020423 -1.506127,0 -1.004085,0.5020423 -1.004084,1.0040845 -0.502043,1.50612689 0,1.00408458 0.502043,1.50612683 1.004084,1.0040846 1.004085,0.5020423 1.506127,0 1.004084,-0.5020423 1.004085,-1.0040846 m -17.57148,-9.0367612 0,10.5428881 m 0,-10.5428881 4.016338,10.5428881 m 4.016338,-10.5428881 -4.016338,10.5428881 m 4.016338,-10.5428881 0,10.5428881" stroke="#333" stroke-width="1.6" fill="none"></path></g></g><g id="chart-astrology-radix-circles"><circle cx="400" cy="400" r="175" fill="none" stroke="#333" stroke-width="2"></circle><circle cx="400" cy="400" r="350" fill="none" stroke="#333" stroke-width="2"></circle><circle cx="400" cy="400" r="306.25" fill="none" stroke="#333" stroke-width="2"></circle></g></g></g></svg>